<?xml version="1.0" encoding="utf-8"?>
<svg xmlns="http://www.w3.org/2000/svg" xmlns:xlink="http://www.w3.org/1999/xlink" width="600" height="400" viewBox="0 0 2400 1600">
<defs>
  <clipPath id="clip410">
    <rect x="0" y="0" width="2400" height="1600"/>
  </clipPath>
</defs>
<path clip-path="url(#clip410)" d="M0 1600 L2400 1600 L2400 0 L0 0  Z" fill="#ffffff" fill-rule="evenodd" fill-opacity="1"/>
<defs>
  <clipPath id="clip411">
    <rect x="480" y="0" width="1681" height="1600"/>
  </clipPath>
</defs>
<path clip-path="url(#clip410)" d="M175.445 1423.18 L2352.76 1423.18 L2352.76 47.2441 L175.445 47.2441  Z" fill="#ffffff" fill-rule="evenodd" fill-opacity="1"/>
<defs>
  <clipPath id="clip412">
    <rect x="175" y="47" width="2178" height="1377"/>
  </clipPath>
</defs>
<polyline clip-path="url(#clip412)" style="stroke:#000000; stroke-linecap:round; stroke-linejoin:round; stroke-width:2; stroke-opacity:0.1; fill:none" points="237.067,1423.18 237.067,47.2441 "/>
<polyline clip-path="url(#clip412)" style="stroke:#000000; stroke-linecap:round; stroke-linejoin:round; stroke-width:2; stroke-opacity:0.1; fill:none" points="750.584,1423.18 750.584,47.2441 "/>
<polyline clip-path="url(#clip412)" style="stroke:#000000; stroke-linecap:round; stroke-linejoin:round; stroke-width:2; stroke-opacity:0.1; fill:none" points="1264.1,1423.18 1264.1,47.2441 "/>
<polyline clip-path="url(#clip412)" style="stroke:#000000; stroke-linecap:round; stroke-linejoin:round; stroke-width:2; stroke-opacity:0.1; fill:none" points="1777.62,1423.18 1777.62,47.2441 "/>
<polyline clip-path="url(#clip412)" style="stroke:#000000; stroke-linecap:round; stroke-linejoin:round; stroke-width:2; stroke-opacity:0.1; fill:none" points="2291.13,1423.18 2291.13,47.2441 "/>
<polyline clip-path="url(#clip412)" style="stroke:#000000; stroke-linecap:round; stroke-linejoin:round; stroke-width:2; stroke-opacity:0.1; fill:none" points="175.445,1384.24 2352.76,1384.24 "/>
<polyline clip-path="url(#clip412)" style="stroke:#000000; stroke-linecap:round; stroke-linejoin:round; stroke-width:2; stroke-opacity:0.1; fill:none" points="175.445,1189.16 2352.76,1189.16 "/>
<polyline clip-path="url(#clip412)" style="stroke:#000000; stroke-linecap:round; stroke-linejoin:round; stroke-width:2; stroke-opacity:0.1; fill:none" points="175.445,994.076 2352.76,994.076 "/>
<polyline clip-path="url(#clip412)" style="stroke:#000000; stroke-linecap:round; stroke-linejoin:round; stroke-width:2; stroke-opacity:0.1; fill:none" points="175.445,798.995 2352.76,798.995 "/>
<polyline clip-path="url(#clip412)" style="stroke:#000000; stroke-linecap:round; stroke-linejoin:round; stroke-width:2; stroke-opacity:0.1; fill:none" points="175.445,603.914 2352.76,603.914 "/>
<polyline clip-path="url(#clip412)" style="stroke:#000000; stroke-linecap:round; stroke-linejoin:round; stroke-width:2; stroke-opacity:0.1; fill:none" points="175.445,408.833 2352.76,408.833 "/>
<polyline clip-path="url(#clip412)" style="stroke:#000000; stroke-linecap:round; stroke-linejoin:round; stroke-width:2; stroke-opacity:0.1; fill:none" points="175.445,213.752 2352.76,213.752 "/>
<polyline clip-path="url(#clip410)" style="stroke:#000000; stroke-linecap:round; stroke-linejoin:round; stroke-width:4; stroke-opacity:1; fill:none" points="175.445,1423.18 2352.76,1423.18 "/>
<polyline clip-path="url(#clip410)" style="stroke:#000000; stroke-linecap:round; stroke-linejoin:round; stroke-width:4; stroke-opacity:1; fill:none" points="237.067,1423.18 237.067,1404.28 "/>
<polyline clip-path="url(#clip410)" style="stroke:#000000; stroke-linecap:round; stroke-linejoin:round; stroke-width:4; stroke-opacity:1; fill:none" points="750.584,1423.18 750.584,1404.28 "/>
<polyline clip-path="url(#clip410)" style="stroke:#000000; stroke-linecap:round; stroke-linejoin:round; stroke-width:4; stroke-opacity:1; fill:none" points="1264.1,1423.18 1264.1,1404.28 "/>
<polyline clip-path="url(#clip410)" style="stroke:#000000; stroke-linecap:round; stroke-linejoin:round; stroke-width:4; stroke-opacity:1; fill:none" points="1777.62,1423.18 1777.62,1404.28 "/>
<polyline clip-path="url(#clip410)" style="stroke:#000000; stroke-linecap:round; stroke-linejoin:round; stroke-width:4; stroke-opacity:1; fill:none" points="2291.13,1423.18 2291.13,1404.28 "/>
<path clip-path="url(#clip410)" d="M199.371 1454.1 Q195.76 1454.1 193.931 1457.66 Q192.125 1461.2 192.125 1468.33 Q192.125 1475.44 193.931 1479.01 Q195.76 1482.55 199.371 1482.55 Q203.005 1482.55 204.81 1479.01 Q206.639 1475.44 206.639 1468.33 Q206.639 1461.2 204.81 1457.66 Q203.005 1454.1 199.371 1454.1 M199.371 1450.39 Q205.181 1450.39 208.236 1455 Q211.315 1459.58 211.315 1468.33 Q211.315 1477.06 208.236 1481.67 Q205.181 1486.25 199.371 1486.25 Q193.56 1486.25 190.482 1481.67 Q187.426 1477.06 187.426 1468.33 Q187.426 1459.58 190.482 1455 Q193.56 1450.39 199.371 1450.39 Z" fill="#000000" fill-rule="nonzero" fill-opacity="1" /><path clip-path="url(#clip410)" d="M219.533 1479.7 L224.417 1479.7 L224.417 1485.58 L219.533 1485.58 L219.533 1479.7 Z" fill="#000000" fill-rule="nonzero" fill-opacity="1" /><path clip-path="url(#clip410)" d="M244.602 1454.1 Q240.991 1454.1 239.162 1457.66 Q237.357 1461.2 237.357 1468.33 Q237.357 1475.44 239.162 1479.01 Q240.991 1482.55 244.602 1482.55 Q248.236 1482.55 250.042 1479.01 Q251.87 1475.44 251.87 1468.33 Q251.87 1461.2 250.042 1457.66 Q248.236 1454.1 244.602 1454.1 M244.602 1450.39 Q250.412 1450.39 253.468 1455 Q256.546 1459.58 256.546 1468.33 Q256.546 1477.06 253.468 1481.67 Q250.412 1486.25 244.602 1486.25 Q238.792 1486.25 235.713 1481.67 Q232.658 1477.06 232.658 1468.33 Q232.658 1459.58 235.713 1455 Q238.792 1450.39 244.602 1450.39 Z" fill="#000000" fill-rule="nonzero" fill-opacity="1" /><path clip-path="url(#clip410)" d="M274.764 1454.1 Q271.153 1454.1 269.324 1457.66 Q267.518 1461.2 267.518 1468.33 Q267.518 1475.44 269.324 1479.01 Q271.153 1482.55 274.764 1482.55 Q278.398 1482.55 280.204 1479.01 Q282.032 1475.44 282.032 1468.33 Q282.032 1461.2 280.204 1457.66 Q278.398 1454.1 274.764 1454.1 M274.764 1450.39 Q280.574 1450.39 283.629 1455 Q286.708 1459.58 286.708 1468.33 Q286.708 1477.06 283.629 1481.67 Q280.574 1486.25 274.764 1486.25 Q268.954 1486.25 265.875 1481.67 Q262.819 1477.06 262.819 1468.33 Q262.819 1459.58 265.875 1455 Q268.954 1450.39 274.764 1450.39 Z" fill="#000000" fill-rule="nonzero" fill-opacity="1" /><path clip-path="url(#clip410)" d="M713.385 1454.1 Q709.774 1454.1 707.945 1457.66 Q706.14 1461.2 706.14 1468.33 Q706.14 1475.44 707.945 1479.01 Q709.774 1482.55 713.385 1482.55 Q717.019 1482.55 718.825 1479.01 Q720.653 1475.44 720.653 1468.33 Q720.653 1461.2 718.825 1457.66 Q717.019 1454.1 713.385 1454.1 M713.385 1450.39 Q719.195 1450.39 722.251 1455 Q725.329 1459.58 725.329 1468.33 Q725.329 1477.06 722.251 1481.67 Q719.195 1486.25 713.385 1486.25 Q707.575 1486.25 704.496 1481.67 Q701.441 1477.06 701.441 1468.33 Q701.441 1459.58 704.496 1455 Q707.575 1450.39 713.385 1450.39 Z" fill="#000000" fill-rule="nonzero" fill-opacity="1" /><path clip-path="url(#clip410)" d="M733.547 1479.7 L738.431 1479.7 L738.431 1485.58 L733.547 1485.58 L733.547 1479.7 Z" fill="#000000" fill-rule="nonzero" fill-opacity="1" /><path clip-path="url(#clip410)" d="M752.644 1481.64 L768.963 1481.64 L768.963 1485.58 L747.019 1485.58 L747.019 1481.64 Q749.681 1478.89 754.264 1474.26 Q758.871 1469.61 760.051 1468.27 Q762.297 1465.74 763.176 1464.01 Q764.079 1462.25 764.079 1460.56 Q764.079 1457.8 762.135 1456.07 Q760.213 1454.33 757.112 1454.33 Q754.913 1454.33 752.459 1455.09 Q750.028 1455.86 747.251 1457.41 L747.251 1452.69 Q750.075 1451.55 752.528 1450.97 Q754.982 1450.39 757.019 1450.39 Q762.389 1450.39 765.584 1453.08 Q768.778 1455.77 768.778 1460.26 Q768.778 1462.39 767.968 1464.31 Q767.181 1466.2 765.075 1468.8 Q764.496 1469.47 761.394 1472.69 Q758.292 1475.88 752.644 1481.64 Z" fill="#000000" fill-rule="nonzero" fill-opacity="1" /><path clip-path="url(#clip410)" d="M778.824 1451.02 L797.181 1451.02 L797.181 1454.96 L783.107 1454.96 L783.107 1463.43 Q784.125 1463.08 785.144 1462.92 Q786.162 1462.73 787.181 1462.73 Q792.968 1462.73 796.348 1465.9 Q799.727 1469.08 799.727 1474.49 Q799.727 1480.07 796.255 1483.17 Q792.783 1486.25 786.463 1486.25 Q784.287 1486.25 782.019 1485.88 Q779.774 1485.51 777.366 1484.77 L777.366 1480.07 Q779.449 1481.2 781.672 1481.76 Q783.894 1482.32 786.371 1482.32 Q790.375 1482.32 792.713 1480.21 Q795.051 1478.1 795.051 1474.49 Q795.051 1470.88 792.713 1468.77 Q790.375 1466.67 786.371 1466.67 Q784.496 1466.67 782.621 1467.08 Q780.769 1467.5 778.824 1468.38 L778.824 1451.02 Z" fill="#000000" fill-rule="nonzero" fill-opacity="1" /><path clip-path="url(#clip410)" d="M1226.4 1454.1 Q1222.79 1454.1 1220.96 1457.66 Q1219.16 1461.2 1219.16 1468.33 Q1219.16 1475.44 1220.96 1479.01 Q1222.79 1482.55 1226.4 1482.55 Q1230.04 1482.55 1231.84 1479.01 Q1233.67 1475.44 1233.67 1468.33 Q1233.67 1461.2 1231.84 1457.66 Q1230.04 1454.1 1226.4 1454.1 M1226.4 1450.39 Q1232.21 1450.39 1235.27 1455 Q1238.35 1459.58 1238.35 1468.33 Q1238.35 1477.06 1235.27 1481.67 Q1232.21 1486.25 1226.4 1486.25 Q1220.59 1486.25 1217.52 1481.67 Q1214.46 1477.06 1214.46 1468.33 Q1214.46 1459.58 1217.52 1455 Q1220.59 1450.39 1226.4 1450.39 Z" fill="#000000" fill-rule="nonzero" fill-opacity="1" /><path clip-path="url(#clip410)" d="M1246.57 1479.7 L1251.45 1479.7 L1251.45 1485.58 L1246.57 1485.58 L1246.57 1479.7 Z" fill="#000000" fill-rule="nonzero" fill-opacity="1" /><path clip-path="url(#clip410)" d="M1261.68 1451.02 L1280.04 1451.02 L1280.04 1454.96 L1265.96 1454.96 L1265.96 1463.43 Q1266.98 1463.08 1268 1462.92 Q1269.02 1462.73 1270.04 1462.73 Q1275.83 1462.73 1279.2 1465.9 Q1282.58 1469.08 1282.58 1474.49 Q1282.58 1480.07 1279.11 1483.17 Q1275.64 1486.25 1269.32 1486.25 Q1267.14 1486.25 1264.88 1485.88 Q1262.63 1485.51 1260.22 1484.77 L1260.22 1480.07 Q1262.31 1481.2 1264.53 1481.76 Q1266.75 1482.32 1269.23 1482.32 Q1273.23 1482.32 1275.57 1480.21 Q1277.91 1478.1 1277.91 1474.49 Q1277.91 1470.88 1275.57 1468.77 Q1273.23 1466.67 1269.23 1466.67 Q1267.35 1466.67 1265.48 1467.08 Q1263.63 1467.5 1261.68 1468.38 L1261.68 1451.02 Z" fill="#000000" fill-rule="nonzero" fill-opacity="1" /><path clip-path="url(#clip410)" d="M1301.8 1454.1 Q1298.19 1454.1 1296.36 1457.66 Q1294.55 1461.2 1294.55 1468.33 Q1294.55 1475.44 1296.36 1479.01 Q1298.19 1482.55 1301.8 1482.55 Q1305.43 1482.55 1307.24 1479.01 Q1309.07 1475.44 1309.07 1468.33 Q1309.07 1461.2 1307.24 1457.66 Q1305.43 1454.1 1301.8 1454.1 M1301.8 1450.39 Q1307.61 1450.39 1310.66 1455 Q1313.74 1459.58 1313.74 1468.33 Q1313.74 1477.06 1310.66 1481.67 Q1307.61 1486.25 1301.8 1486.25 Q1295.99 1486.25 1292.91 1481.67 Q1289.85 1477.06 1289.85 1468.33 Q1289.85 1459.58 1292.91 1455 Q1295.99 1450.39 1301.8 1450.39 Z" fill="#000000" fill-rule="nonzero" fill-opacity="1" /><path clip-path="url(#clip410)" d="M1740.42 1454.1 Q1736.81 1454.1 1734.98 1457.66 Q1733.17 1461.2 1733.17 1468.33 Q1733.17 1475.44 1734.98 1479.01 Q1736.81 1482.55 1740.42 1482.55 Q1744.05 1482.55 1745.86 1479.01 Q1747.69 1475.44 1747.69 1468.33 Q1747.69 1461.2 1745.86 1457.66 Q1744.05 1454.1 1740.42 1454.1 M1740.42 1450.39 Q1746.23 1450.39 1749.28 1455 Q1752.36 1459.58 1752.36 1468.33 Q1752.36 1477.06 1749.28 1481.67 Q1746.23 1486.25 1740.42 1486.25 Q1734.61 1486.25 1731.53 1481.67 Q1728.47 1477.06 1728.47 1468.33 Q1728.47 1459.58 1731.53 1455 Q1734.61 1450.39 1740.42 1450.39 Z" fill="#000000" fill-rule="nonzero" fill-opacity="1" /><path clip-path="url(#clip410)" d="M1760.58 1479.7 L1765.46 1479.7 L1765.46 1485.58 L1760.58 1485.58 L1760.58 1479.7 Z" fill="#000000" fill-rule="nonzero" fill-opacity="1" /><path clip-path="url(#clip410)" d="M1774.47 1451.02 L1796.69 1451.02 L1796.69 1453.01 L1784.14 1485.58 L1779.26 1485.58 L1791.07 1454.96 L1774.47 1454.96 L1774.47 1451.02 Z" fill="#000000" fill-rule="nonzero" fill-opacity="1" /><path clip-path="url(#clip410)" d="M1805.86 1451.02 L1824.21 1451.02 L1824.21 1454.96 L1810.14 1454.96 L1810.14 1463.43 Q1811.16 1463.08 1812.18 1462.92 Q1813.2 1462.73 1814.21 1462.73 Q1820 1462.73 1823.38 1465.9 Q1826.76 1469.08 1826.76 1474.49 Q1826.76 1480.07 1823.29 1483.17 Q1819.82 1486.25 1813.5 1486.25 Q1811.32 1486.25 1809.05 1485.88 Q1806.81 1485.51 1804.4 1484.77 L1804.4 1480.07 Q1806.48 1481.2 1808.71 1481.76 Q1810.93 1482.32 1813.4 1482.32 Q1817.41 1482.32 1819.75 1480.21 Q1822.08 1478.1 1822.08 1474.49 Q1822.08 1470.88 1819.75 1468.77 Q1817.41 1466.67 1813.4 1466.67 Q1811.53 1466.67 1809.65 1467.08 Q1807.8 1467.5 1805.86 1468.38 L1805.86 1451.02 Z" fill="#000000" fill-rule="nonzero" fill-opacity="1" /><path clip-path="url(#clip410)" d="M2243.21 1481.64 L2250.84 1481.64 L2250.84 1455.28 L2242.53 1456.95 L2242.53 1452.69 L2250.8 1451.02 L2255.47 1451.02 L2255.47 1481.64 L2263.11 1481.64 L2263.11 1485.58 L2243.21 1485.58 L2243.21 1481.64 Z" fill="#000000" fill-rule="nonzero" fill-opacity="1" /><path clip-path="url(#clip410)" d="M2272.56 1479.7 L2277.44 1479.7 L2277.44 1485.58 L2272.56 1485.58 L2272.56 1479.7 Z" fill="#000000" fill-rule="nonzero" fill-opacity="1" /><path clip-path="url(#clip410)" d="M2297.63 1454.1 Q2294.02 1454.1 2292.19 1457.66 Q2290.38 1461.2 2290.38 1468.33 Q2290.38 1475.44 2292.19 1479.01 Q2294.02 1482.55 2297.63 1482.55 Q2301.26 1482.55 2303.07 1479.01 Q2304.9 1475.44 2304.9 1468.33 Q2304.9 1461.2 2303.07 1457.66 Q2301.26 1454.1 2297.63 1454.1 M2297.63 1450.39 Q2303.44 1450.39 2306.49 1455 Q2309.57 1459.58 2309.57 1468.33 Q2309.57 1477.06 2306.49 1481.67 Q2303.44 1486.25 2297.63 1486.25 Q2291.82 1486.25 2288.74 1481.67 Q2285.68 1477.06 2285.68 1468.33 Q2285.68 1459.58 2288.74 1455 Q2291.82 1450.39 2297.63 1450.39 Z" fill="#000000" fill-rule="nonzero" fill-opacity="1" /><path clip-path="url(#clip410)" d="M2327.79 1454.1 Q2324.18 1454.1 2322.35 1457.66 Q2320.54 1461.2 2320.54 1468.33 Q2320.54 1475.44 2322.35 1479.01 Q2324.18 1482.55 2327.79 1482.55 Q2331.42 1482.55 2333.23 1479.01 Q2335.06 1475.44 2335.06 1468.33 Q2335.06 1461.2 2333.23 1457.66 Q2331.42 1454.1 2327.79 1454.1 M2327.79 1450.39 Q2333.6 1450.39 2336.65 1455 Q2339.73 1459.58 2339.73 1468.33 Q2339.73 1477.06 2336.65 1481.67 Q2333.6 1486.25 2327.79 1486.25 Q2321.98 1486.25 2318.9 1481.67 Q2315.84 1477.06 2315.84 1468.33 Q2315.84 1459.58 2318.9 1455 Q2321.98 1450.39 2327.79 1450.39 Z" fill="#000000" fill-rule="nonzero" fill-opacity="1" /><path clip-path="url(#clip410)" d="M1272.57 1531.91 Q1272.57 1532.81 1272.15 1533.04 Q1271.73 1533.23 1270.57 1533.23 L1264.39 1533.23 L1259.5 1552.69 Q1259.11 1554.39 1259.11 1555.84 Q1259.11 1557.45 1259.59 1558.16 Q1260.11 1558.87 1261.17 1558.87 Q1263.26 1558.87 1265.52 1556.97 Q1267.81 1555.07 1269.74 1550.43 Q1270 1549.82 1270.12 1549.69 Q1270.28 1549.53 1270.7 1549.53 Q1271.51 1549.53 1271.51 1550.17 Q1271.51 1550.4 1271.06 1551.43 Q1270.64 1552.46 1269.71 1553.97 Q1268.8 1555.49 1267.61 1556.9 Q1266.45 1558.32 1264.68 1559.35 Q1262.91 1560.35 1261.01 1560.35 Q1258.34 1560.35 1256.63 1558.64 Q1254.95 1556.94 1254.95 1554.26 Q1254.95 1553.39 1255.63 1550.62 Q1256.31 1547.82 1259.98 1533.23 L1254.15 1533.23 Q1253.34 1533.23 1253.02 1533.2 Q1252.73 1533.17 1252.51 1533.01 Q1252.31 1532.81 1252.31 1532.43 Q1252.31 1531.82 1252.57 1531.56 Q1252.83 1531.27 1253.15 1531.24 Q1253.51 1531.17 1254.31 1531.17 L1260.49 1531.17 L1263.07 1520.71 Q1263.33 1519.67 1263.97 1519.09 Q1264.65 1518.48 1265.04 1518.42 Q1265.42 1518.32 1265.71 1518.32 Q1266.58 1518.32 1267.1 1518.81 Q1267.61 1519.26 1267.61 1520.09 Q1267.61 1520.54 1264.91 1531.17 L1270.7 1531.17 Q1271.44 1531.17 1271.73 1531.2 Q1272.06 1531.24 1272.31 1531.4 Q1272.57 1531.56 1272.57 1531.91 Z" fill="#000000" fill-rule="nonzero" fill-opacity="1" /><polyline clip-path="url(#clip410)" style="stroke:#000000; stroke-linecap:round; stroke-linejoin:round; stroke-width:4; stroke-opacity:1; fill:none" points="175.445,1423.18 175.445,47.2441 "/>
<polyline clip-path="url(#clip410)" style="stroke:#000000; stroke-linecap:round; stroke-linejoin:round; stroke-width:4; stroke-opacity:1; fill:none" points="175.445,1384.24 194.343,1384.24 "/>
<polyline clip-path="url(#clip410)" style="stroke:#000000; stroke-linecap:round; stroke-linejoin:round; stroke-width:4; stroke-opacity:1; fill:none" points="175.445,1189.16 194.343,1189.16 "/>
<polyline clip-path="url(#clip410)" style="stroke:#000000; stroke-linecap:round; stroke-linejoin:round; stroke-width:4; stroke-opacity:1; fill:none" points="175.445,994.076 194.343,994.076 "/>
<polyline clip-path="url(#clip410)" style="stroke:#000000; stroke-linecap:round; stroke-linejoin:round; stroke-width:4; stroke-opacity:1; fill:none" points="175.445,798.995 194.343,798.995 "/>
<polyline clip-path="url(#clip410)" style="stroke:#000000; stroke-linecap:round; stroke-linejoin:round; stroke-width:4; stroke-opacity:1; fill:none" points="175.445,603.914 194.343,603.914 "/>
<polyline clip-path="url(#clip410)" style="stroke:#000000; stroke-linecap:round; stroke-linejoin:round; stroke-width:4; stroke-opacity:1; fill:none" points="175.445,408.833 194.343,408.833 "/>
<polyline clip-path="url(#clip410)" style="stroke:#000000; stroke-linecap:round; stroke-linejoin:round; stroke-width:4; stroke-opacity:1; fill:none" points="175.445,213.752 194.343,213.752 "/>
<path clip-path="url(#clip410)" d="M127.501 1370.04 Q123.89 1370.04 122.061 1373.6 Q120.255 1377.14 120.255 1384.27 Q120.255 1391.38 122.061 1394.94 Q123.89 1398.49 127.501 1398.49 Q131.135 1398.49 132.941 1394.94 Q134.769 1391.38 134.769 1384.27 Q134.769 1377.14 132.941 1373.6 Q131.135 1370.04 127.501 1370.04 M127.501 1366.33 Q133.311 1366.33 136.367 1370.94 Q139.445 1375.52 139.445 1384.27 Q139.445 1393 136.367 1397.61 Q133.311 1402.19 127.501 1402.19 Q121.691 1402.19 118.612 1397.61 Q115.556 1393 115.556 1384.27 Q115.556 1375.52 118.612 1370.94 Q121.691 1366.33 127.501 1366.33 Z" fill="#000000" fill-rule="nonzero" fill-opacity="1" /><path clip-path="url(#clip410)" d="M119.538 1202.5 L127.177 1202.5 L127.177 1176.14 L118.867 1177.8 L118.867 1173.54 L127.13 1171.88 L131.806 1171.88 L131.806 1202.5 L139.445 1202.5 L139.445 1206.44 L119.538 1206.44 L119.538 1202.5 Z" fill="#000000" fill-rule="nonzero" fill-opacity="1" /><path clip-path="url(#clip410)" d="M123.126 1007.42 L139.445 1007.42 L139.445 1011.36 L117.501 1011.36 L117.501 1007.42 Q120.163 1004.67 124.746 1000.04 Q129.353 995.384 130.533 994.042 Q132.779 991.518 133.658 989.782 Q134.561 988.023 134.561 986.333 Q134.561 983.579 132.617 981.843 Q130.695 980.106 127.593 980.106 Q125.394 980.106 122.941 980.87 Q120.51 981.634 117.732 983.185 L117.732 978.463 Q120.556 977.329 123.01 976.75 Q125.464 976.171 127.501 976.171 Q132.871 976.171 136.066 978.856 Q139.26 981.542 139.26 986.032 Q139.26 988.162 138.45 990.083 Q137.663 991.981 135.556 994.574 Q134.978 995.245 131.876 998.463 Q128.774 1001.66 123.126 1007.42 Z" fill="#000000" fill-rule="nonzero" fill-opacity="1" /><path clip-path="url(#clip410)" d="M132.316 797.641 Q135.672 798.359 137.547 800.627 Q139.445 802.896 139.445 806.229 Q139.445 811.345 135.927 814.146 Q132.408 816.947 125.927 816.947 Q123.751 816.947 121.436 816.507 Q119.144 816.09 116.691 815.234 L116.691 810.72 Q118.635 811.854 120.95 812.433 Q123.265 813.011 125.788 813.011 Q130.186 813.011 132.478 811.275 Q134.792 809.539 134.792 806.229 Q134.792 803.174 132.64 801.461 Q130.51 799.724 126.691 799.724 L122.663 799.724 L122.663 795.882 L126.876 795.882 Q130.325 795.882 132.154 794.516 Q133.982 793.127 133.982 790.535 Q133.982 787.873 132.084 786.461 Q130.209 785.025 126.691 785.025 Q124.769 785.025 122.57 785.442 Q120.371 785.859 117.732 786.738 L117.732 782.572 Q120.394 781.831 122.709 781.461 Q125.047 781.09 127.107 781.09 Q132.431 781.09 135.533 783.521 Q138.635 785.928 138.635 790.049 Q138.635 792.919 136.992 794.91 Q135.348 796.877 132.316 797.641 Z" fill="#000000" fill-rule="nonzero" fill-opacity="1" /><path clip-path="url(#clip410)" d="M129.862 590.708 L118.056 609.157 L129.862 609.157 L129.862 590.708 M128.635 586.634 L134.515 586.634 L134.515 609.157 L139.445 609.157 L139.445 613.046 L134.515 613.046 L134.515 621.194 L129.862 621.194 L129.862 613.046 L114.26 613.046 L114.26 608.532 L128.635 586.634 Z" fill="#000000" fill-rule="nonzero" fill-opacity="1" /><path clip-path="url(#clip410)" d="M118.543 391.553 L136.899 391.553 L136.899 395.489 L122.825 395.489 L122.825 403.961 Q123.843 403.613 124.862 403.451 Q125.88 403.266 126.899 403.266 Q132.686 403.266 136.066 406.438 Q139.445 409.609 139.445 415.025 Q139.445 420.604 135.973 423.706 Q132.501 426.785 126.181 426.785 Q124.005 426.785 121.737 426.414 Q119.492 426.044 117.084 425.303 L117.084 420.604 Q119.168 421.738 121.39 422.294 Q123.612 422.849 126.089 422.849 Q130.093 422.849 132.431 420.743 Q134.769 418.637 134.769 415.025 Q134.769 411.414 132.431 409.308 Q130.093 407.201 126.089 407.201 Q124.214 407.201 122.339 407.618 Q120.487 408.035 118.543 408.914 L118.543 391.553 Z" fill="#000000" fill-rule="nonzero" fill-opacity="1" /><path clip-path="url(#clip410)" d="M127.917 211.889 Q124.769 211.889 122.918 214.042 Q121.089 216.194 121.089 219.944 Q121.089 223.671 122.918 225.847 Q124.769 228 127.917 228 Q131.066 228 132.894 225.847 Q134.746 223.671 134.746 219.944 Q134.746 216.194 132.894 214.042 Q131.066 211.889 127.917 211.889 M137.2 197.236 L137.2 201.495 Q135.441 200.662 133.635 200.222 Q131.853 199.783 130.093 199.783 Q125.464 199.783 123.01 202.908 Q120.58 206.032 120.232 212.352 Q121.598 210.338 123.658 209.273 Q125.718 208.185 128.195 208.185 Q133.404 208.185 136.413 211.357 Q139.445 214.505 139.445 219.944 Q139.445 225.268 136.297 228.486 Q133.149 231.704 127.917 231.704 Q121.922 231.704 118.751 227.12 Q115.58 222.514 115.58 213.787 Q115.58 205.593 119.468 200.732 Q123.357 195.847 129.908 195.847 Q131.667 195.847 133.45 196.195 Q135.255 196.542 137.2 197.236 Z" fill="#000000" fill-rule="nonzero" fill-opacity="1" /><path clip-path="url(#clip410)" d="M30.8561 720.775 Q31.307 720.775 32.3698 721.064 L57.5548 727.377 Q63.1586 728.762 67.0877 733.27 Q71.0168 737.747 71.0168 742.836 Q71.0168 745.895 69.3743 747.86 Q67.764 749.824 65.2842 749.824 Q63.0942 749.824 62.0314 748.665 Q61.0008 747.505 61.0008 746.121 Q61.0008 745.67 61.1296 745.187 Q61.2584 744.703 61.8059 744.188 Q62.3534 743.673 63.2874 743.673 Q64.8011 743.673 65.9927 744.993 Q66.5402 745.637 66.669 746.249 Q66.7978 746.829 66.7978 747.827 Q67.6996 747.441 68.3115 746.732 Q68.9234 746.024 69.1489 745.219 Q69.4065 744.414 69.4709 743.898 Q69.5675 743.351 69.5675 742.836 Q69.5675 738.713 65.413 735.557 Q64.157 734.623 62.9009 733.947 Q61.6771 733.238 60.1634 732.723 Q58.682 732.208 57.8768 731.982 Q57.0717 731.725 55.2359 731.274 Q58.2311 734.269 58.2311 737.94 Q58.2311 739.486 57.8124 740.871 Q57.3937 742.224 56.5242 743.415 Q55.6224 744.607 54.0443 745.315 Q52.4662 745.992 50.3728 745.992 Q48.1506 745.992 45.1233 745.122 Q42.0959 744.253 36.5243 742.159 Q33.4004 741.032 31.8867 741.032 Q31.146 741.032 30.6951 741.193 Q30.212 741.354 30.051 741.676 Q29.8577 741.998 29.8255 742.191 Q29.7933 742.352 29.7933 742.675 Q29.7933 744.575 31.7257 746.346 Q33.658 748.117 37.9736 749.341 Q38.7787 749.599 38.972 749.76 Q39.1652 749.921 39.1652 750.404 Q39.133 751.209 38.4889 751.209 Q38.2312 751.209 37.2329 750.919 Q36.2023 750.629 34.6886 749.953 Q33.1427 749.245 31.7579 748.278 Q30.3408 747.312 29.3424 745.798 Q28.344 744.253 28.344 742.481 Q28.344 740.066 29.9221 738.584 Q31.468 737.071 33.7546 737.071 Q34.6886 737.071 35.5259 737.328 Q36.3311 737.554 38.4889 738.391 Q47.1845 741.773 51.4356 741.773 Q52.4662 741.773 53.3358 741.612 Q54.1731 741.418 55.0105 741 Q55.8156 740.581 56.2987 739.744 Q56.7496 738.874 56.7496 737.683 Q56.7496 736.169 56.0411 734.752 Q55.3003 733.303 54.302 732.401 Q53.3036 731.467 52.4662 730.919 Q51.5967 730.34 51.1458 730.211 L39.294 727.248 L34.0123 725.927 Q31.146 725.316 30.4374 725.026 Q29.7611 724.639 29.4068 723.963 Q29.0526 723.287 29.0526 722.707 Q29.0526 721.902 29.5357 721.354 Q30.0187 720.775 30.8561 720.775 Z" fill="#000000" fill-rule="nonzero" fill-opacity="1" /><polyline clip-path="url(#clip412)" style="stroke:#009af9; stroke-linecap:round; stroke-linejoin:round; stroke-width:8; stroke-opacity:1; fill:none" stroke-dasharray="32, 20" points="237.067,1189.16 241.079,1198.94 245.091,1197.83 249.103,1190.81 253.115,1196.3 257.126,1193.18 261.138,1195.3 265.15,1203.26 269.162,1185.68 273.174,1183.85 277.186,1183.75 281.198,1185.77 285.209,1192.75 289.221,1203.62 293.233,1194.65 297.245,1179.43 301.257,1163.26 305.269,1150.71 309.28,1133.73 313.292,1129.33 317.304,1127.16 321.316,1127.69 325.328,1125.12 329.34,1125.6 333.352,1120.9 337.363,1122.36 341.375,1122.05 345.387,1128.03 349.399,1136.7 353.411,1146.71 357.423,1138.5 361.435,1125.42 365.446,1126.37 369.458,1126.07 373.47,1113.4 377.482,1121.43 381.494,1108 385.506,1101 389.517,1107.96 393.529,1105.6 397.541,1104 401.553,1104.41 405.565,1107.01 409.577,1087.08 413.589,1081.83 417.6,1073 421.612,1093.13 425.624,1090.9 429.636,1072.92 433.648,1056.14 437.66,1053.2 441.672,1063.9 445.683,1053.27 449.695,1073.48 453.707,1097.41 457.719,1098.88 461.731,1084.9 465.743,1095.91 469.754,1076.65 473.766,1085.3 477.778,1091.7 481.79,1066.94 485.802,1052.13 489.814,1050.13 493.826,1026.32 497.837,1031.38 501.849,1022.48 505.861,1028.81 509.873,1027.02 513.885,1015.07 517.897,1008.82 521.908,1026.51 525.92,1034.77 529.932,1053.82 533.944,1046.18 537.956,1072.72 541.968,1061.01 545.98,1081.81 549.991,1081.31 554.003,1077.03 558.015,1079.98 562.027,1089.82 566.039,1090.11 570.051,1083.53 574.063,1091.26 578.074,1083.13 582.086,1069.39 586.098,1081.48 590.11,1098.95 594.122,1100.26 598.134,1092.13 602.145,1099.71 606.157,1097.08 610.169,1085.35 614.181,1095.53 618.193,1084.79 622.205,1087.7 626.217,1077.75 630.228,1051.05 634.24,1062.33 638.252,1036.98 642.264,1022.73 646.276,1010.81 650.288,995.852 654.3,992.647 658.311,994.528 662.323,992.841 666.335,1001.63 670.347,992.45 674.359,1005.03 678.371,998.502 682.382,982.33 686.394,970.678 690.406,968.969 694.418,977.474 698.43,985.712 702.442,993.214 706.454,997.505 710.465,1000.42 714.477,992.479 718.489,992.459 722.501,1013.15 726.513,999.632 730.525,990.905 734.536,1002.17 738.548,1008.01 742.56,994.713 746.572,1005.76 750.584,1001.89 754.596,978.651 758.608,978.221 762.619,973.063 766.631,962.536 770.643,961.181 774.655,974.07 778.667,967.187 782.679,970.789 786.691,973.567 790.702,959.718 794.714,942.935 798.726,959.223 802.738,965.255 806.75,985.047 810.762,977.642 814.773,982.609 818.785,987.48 822.797,1005.39 826.809,1032.64 830.821,1035.58 834.833,1022.28 838.845,1021.32 842.856,1044.63 846.868,1038.17 850.88,1029.21 854.892,1014.1 858.904,1010.78 862.916,1032.85 866.928,1027.43 870.939,1013.69 874.951,1052.9 878.963,1058.65 882.975,1050.88 886.987,1052.56 890.999,1022 895.01,1033.11 899.022,1021.11 903.034,1031 907.046,1009.32 911.058,1003.51 915.07,1012.72 919.082,1002.62 923.093,998.321 927.105,983 931.117,960.704 935.129,946.38 939.141,942.896 943.153,933.173 947.164,939.104 951.176,941.244 955.188,975.526 959.2,968.474 963.212,961.223 967.224,975.247 971.236,987.901 975.247,998.342 979.259,1010.21 983.271,989.569 987.283,985.148 991.295,991.483 995.307,985.446 999.319,1001.76 1003.33,1008.3 1007.34,1044.78 1011.35,1023.15 1015.37,1015.8 1019.38,996.298 1023.39,995.472 1027.4,1007.03 1031.41,1010.61 1035.43,1006.2 1039.44,1008.56 1043.45,1021.92 1047.46,1015.42 1051.47,1010 1055.48,1001.29 1059.5,1003.31 1063.51,1018.99 1067.52,1020.78 1071.53,1034.57 1075.54,1051.09 1079.56,1030.14 1083.57,1034.71 1087.58,1034 1091.59,1032.06 1095.6,1032 1099.61,1008.84 1103.63,1017.09 1107.64,1003.04 1111.65,991.925 1115.66,1009.49 1119.67,1019.94 1123.69,1016.36 1127.7,1019.89 1131.71,1038.85 1135.72,1020.4 1139.73,1008.91 1143.75,1007.37 1147.76,1019.4 1151.77,1020.21 1155.78,1009.38 1159.79,1024.23 1163.8,1028.34 1167.82,1014.42 1171.83,1002.74 1175.84,990.269 1179.85,987.511 1183.86,986.039 1187.88,992.988 1191.89,990.725 1195.9,990.396 1199.91,989.671 1203.92,981.643 1207.93,979.995 1211.95,983.019 1215.96,994.282 1219.97,992.155 1223.98,976.963 1227.99,989.004 1232.01,977.866 1236.02,971.341 1240.03,964.881 1244.04,965.992 1248.05,964.72 1252.07,954.97 1256.08,976.056 1260.09,970.989 1264.1,974.091 1268.11,978.274 1272.12,989.83 1276.14,998.96 1280.15,986.025 1284.16,1009.21 1288.17,992.716 1292.18,985.98 1296.2,977.025 1300.21,974.352 1304.22,968.494 1308.23,978.569 1312.24,979.369 1316.25,975.32 1320.27,984.58 1324.28,1001.44 1328.29,1026.72 1332.3,1028.37 1336.31,1032.88 1340.33,1040.55 1344.34,1031.07 1348.35,1038.82 1352.36,1035.21 1356.37,1015.22 1360.38,1027.17 1364.4,1015.83 1368.41,1007.78 1372.42,1002.88 1376.43,959.983 1380.44,968.635 1384.46,972.121 1388.47,1000.59 1392.48,992.937 1396.49,1001.59 1400.5,1005.68 1404.52,1004.15 1408.53,1015.43 1412.54,1019.49 1416.55,1002.32 1420.56,985.258 1424.57,984.131 1428.59,985.005 1432.6,968.055 1436.61,952.166 1440.62,924.687 1444.63,913.273 1448.65,900.049 1452.66,876.784 1456.67,851.703 1460.68,875.477 1464.69,873.611 1468.7,896.549 1472.72,899.51 1476.73,888.668 1480.74,868.822 1484.75,890.2 1488.76,870.619 1492.78,866.964 1496.79,869.674 1500.8,871.297 1504.81,862.841 1508.82,860.997 1512.84,873.251 1516.85,910.529 1520.86,915.064 1524.87,892.343 1528.88,901.035 1532.89,905.791 1536.91,919.296 1540.92,906.52 1544.93,906.849 1548.94,923.629 1552.95,936.339 1556.97,937.663 1560.98,925.264 1564.99,931.127 1569,921.167 1573.01,932.064 1577.02,927.866 1581.04,907.719 1585.05,907.601 1589.06,913.464 1593.07,914.226 1597.08,906.559 1601.1,894.794 1605.11,871.769 1609.12,859.617 1613.13,856.346 1617.14,850.825 1621.16,860.502 1625.17,849.323 1629.18,868.749 1633.19,876.862 1637.2,865.911 1641.21,880.403 1645.23,849.182 1649.24,844.75 1653.25,823.404 1657.26,811.046 1661.27,801.021 1665.29,783.095 1669.3,762.21 1673.31,781.445 1677.32,767.182 1681.33,765.026 1685.34,782.492 1689.36,818.099 1693.37,807.968 1697.38,821.419 1701.39,770.172 1705.4,773.863 1709.42,756.238 1713.43,803.578 1717.44,786.489 1721.45,775.067 1725.46,768.393 1729.48,757.198 1733.49,775.328 1737.5,742.069 1741.51,707.155 1745.52,709.633 1749.53,709.789 1753.55,774.641 1757.56,748.499 1761.57,752.37 1765.58,765.136 1769.59,755.038 1773.61,742.427 1777.62,720.251 1781.63,705.525 1785.64,673.919 1789.65,612.454 1793.66,589.458 1797.68,588.225 1801.69,581.166 1805.7,623.247 1809.71,606.792 1813.72,616.134 1817.74,629.447 1821.75,597.114 1825.76,603.901 1829.77,621.455 1833.78,630.807 1837.79,647.817 1841.81,620.048 1845.82,636.962 1849.83,646.867 1853.84,621.595 1857.85,576.903 1861.87,530.699 1865.88,502.11 1869.89,503.313 1873.9,509.798 1877.91,535.35 1881.93,537.271 1885.94,536.998 1889.95,540.761 1893.96,532.078 1897.97,522.77 1901.98,523.816 1906,540.245 1910.01,532.176 1914.02,579.853 1918.03,590.741 1922.04,573.55 1926.06,615.485 1930.07,666.509 1934.08,638.63 1938.09,610.73 1942.1,572.223 1946.11,522.941 1950.13,496.08 1954.14,471.02 1958.15,487.462 1962.16,430.658 1966.17,460.655 1970.19,496.218 1974.2,538.61 1978.21,557.535 1982.22,549.763 1986.23,525.753 1990.25,465.973 1994.26,438.405 1998.27,478.371 2002.28,468.425 2006.29,408.363 2010.3,401.826 2014.32,371.339 2018.33,342.97 2022.34,434.576 2026.35,518.794 2030.36,556.845 2034.38,606.202 2038.39,613.755 2042.4,591.252 2046.41,610.153 2050.42,596.169 2054.43,599.727 2058.45,582.348 2062.46,621.567 2066.47,579.561 2070.48,618.297 2074.49,654.385 2078.51,612.922 2082.52,602.795 2086.53,546.953 2090.54,563.347 2094.55,527.938 2098.57,543.231 2102.58,594.391 2106.59,597.82 2110.6,605.668 2114.61,563.267 2118.62,529.871 2122.64,518.329 2126.65,522.712 2130.66,500.861 2134.67,438.357 2138.68,413.423 2142.7,395.561 2146.71,376.835 2150.72,345.287 2154.73,318.76 2158.74,270.474 2162.75,244.276 2166.77,269.89 2170.78,197.409 2174.79,216.64 2178.8,273.32 2182.81,264.639 2186.83,255.132 2190.84,336.44 2194.85,331.174 2198.86,281.248 2202.87,275.304 2206.89,199.47 2210.9,86.1857 2214.91,93.7559 2218.92,128.474 2222.93,161.65 2226.94,228.417 2230.96,246.041 2234.97,267.864 2238.98,268.005 2242.99,242.296 2247,211.588 2251.02,201.204 2255.03,213.246 2259.04,248.395 2263.05,219.2 2267.06,202.403 2271.07,192.017 2275.09,172.178 2279.1,157.181 2283.11,163.27 2287.12,174.414 2291.13,173.639 "/>
<polyline clip-path="url(#clip412)" style="stroke:#e26f46; stroke-linecap:round; stroke-linejoin:round; stroke-width:8; stroke-opacity:1; fill:none" stroke-dasharray="32, 16, 4, 16" points="237.067,1384.24 241.079,1384.24 245.091,1384.24 249.103,1384.24 253.115,1384.24 257.126,1384.24 261.138,1384.24 265.15,1384.24 269.162,1384.24 273.174,1384.24 277.186,1384.24 281.198,1384.24 285.209,1384.24 289.221,1384.24 293.233,1384.24 297.245,1384.24 301.257,1384.24 305.269,1384.24 309.28,1384.24 313.292,1384.24 317.304,1384.24 321.316,1384.24 325.328,1384.24 329.34,1265.01 333.352,1265.01 337.363,1265.01 341.375,1265.01 345.387,1265.01 349.399,1265.01 353.411,1265.01 357.423,1265.01 361.435,1265.01 365.446,1265.01 369.458,1265.01 373.47,1265.01 377.482,1265.01 381.494,1265.01 385.506,1265.01 389.517,1265.01 393.529,1265.01 397.541,1265.01 401.553,1265.01 405.565,1265.01 409.577,1265.01 413.589,1265.01 417.6,1265.01 421.612,1265.01 425.624,1265.01 429.636,1265.01 433.648,1265.01 437.66,1265.01 441.672,1265.01 445.683,1265.01 449.695,1265.01 453.707,1265.01 457.719,1265.01 461.731,1265.01 465.743,1265.01 469.754,1265.01 473.766,1249.46 477.778,1249.46 481.79,1249.46 485.802,1249.46 489.814,1249.46 493.826,1249.46 497.837,1249.46 501.849,1249.46 505.861,1249.46 509.873,1249.46 513.885,1249.46 517.897,1249.46 521.908,1249.46 525.92,1249.46 529.932,1249.46 533.944,1249.46 537.956,1249.46 541.968,1249.46 545.98,1249.46 549.991,1249.46 554.003,1249.46 558.015,1249.46 562.027,1272.22 566.039,1272.22 570.051,1272.22 574.063,1272.22 578.074,1272.22 582.086,1272.22 586.098,1272.22 590.11,1272.22 594.122,1272.22 598.134,1272.22 602.145,1272.22 606.157,1272.22 610.169,1272.22 614.181,1272.22 618.193,1272.22 622.205,1272.22 626.217,1272.22 630.228,1272.22 634.24,1272.22 638.252,1272.22 642.264,1272.22 646.276,1272.22 650.288,1272.22 654.3,1272.22 658.311,1272.22 662.323,1272.22 666.335,1272.22 670.347,1272.22 674.359,1272.22 678.371,1272.22 682.382,1272.22 686.394,1272.22 690.406,1272.22 694.418,1272.22 698.43,1272.22 702.442,1272.22 706.454,1272.22 710.465,1272.22 714.477,1272.22 718.489,1272.22 722.501,1272.22 726.513,1272.22 730.525,1272.22 734.536,1272.22 738.548,1272.22 742.56,1272.22 746.572,1272.22 750.584,1272.22 754.596,1272.22 758.608,1272.22 762.619,1272.22 766.631,1272.22 770.643,1272.22 774.655,1272.22 778.667,1272.22 782.679,1272.22 786.691,1272.22 790.702,1272.22 794.714,1272.22 798.726,1272.22 802.738,1272.22 806.75,1272.22 810.762,1272.22 814.773,1272.22 818.785,1272.22 822.797,1272.22 826.809,1272.22 830.821,1272.22 834.833,1272.22 838.845,1272.22 842.856,1272.22 846.868,1272.22 850.88,1272.22 854.892,1272.22 858.904,1272.22 862.916,1272.22 866.928,1272.22 870.939,1272.22 874.951,1272.22 878.963,1272.22 882.975,1272.22 886.987,1272.22 890.999,1272.22 895.01,1272.22 899.022,1272.22 903.034,1272.22 907.046,1272.22 911.058,1272.22 915.07,1272.22 919.082,1272.22 923.093,1272.22 927.105,1272.22 931.117,1272.22 935.129,1272.22 939.141,1272.22 943.153,1272.22 947.164,1272.22 951.176,1272.22 955.188,1272.22 959.2,1272.22 963.212,1272.22 967.224,1249.29 971.236,1249.29 975.247,1249.29 979.259,1249.29 983.271,1249.29 987.283,1249.29 991.295,1249.29 995.307,1249.29 999.319,1249.29 1003.33,1249.29 1007.34,1249.29 1011.35,1249.29 1015.37,1249.29 1019.38,1249.29 1023.39,1249.29 1027.4,1249.29 1031.41,1249.29 1035.43,1249.29 1039.44,1249.29 1043.45,1249.29 1047.46,1249.29 1051.47,1249.29 1055.48,1249.29 1059.5,1249.29 1063.51,1249.29 1067.52,1249.29 1071.53,1249.29 1075.54,1249.29 1079.56,1249.29 1083.57,1249.29 1087.58,1249.29 1091.59,1249.29 1095.6,1249.29 1099.61,1249.29 1103.63,1249.29 1107.64,1249.29 1111.65,1249.29 1115.66,1249.29 1119.67,1249.29 1123.69,1249.29 1127.7,1249.29 1131.71,1249.29 1135.72,1249.29 1139.73,1249.29 1143.75,1249.29 1147.76,1249.29 1151.77,1249.29 1155.78,1249.29 1159.79,1249.29 1163.8,1249.29 1167.82,1249.29 1171.83,1249.29 1175.84,1249.29 1179.85,1249.29 1183.86,1249.29 1187.88,1303.9 1191.89,1303.9 1195.9,1303.9 1199.91,1303.9 1203.92,1303.9 1207.93,1303.9 1211.95,1303.9 1215.96,1303.9 1219.97,1303.9 1223.98,1303.9 1227.99,1303.9 1232.01,1303.9 1236.02,1303.9 1240.03,1303.9 1244.04,1303.9 1248.05,1303.9 1252.07,1303.9 1256.08,1303.9 1260.09,1303.9 1264.1,1303.9 1268.11,1303.9 1272.12,1303.9 1276.14,1260.4 1280.15,1260.4 1284.16,1260.4 1288.17,1260.4 1292.18,1260.4 1296.2,1260.4 1300.21,1260.4 1304.22,1260.4 1308.23,1260.4 1312.24,1260.4 1316.25,1260.4 1320.27,1260.4 1324.28,1260.4 1328.29,1260.4 1332.3,1260.4 1336.31,1260.4 1340.33,1260.4 1344.34,1260.4 1348.35,1260.4 1352.36,1260.4 1356.37,1260.4 1360.38,1260.4 1364.4,1336.45 1368.41,1336.45 1372.42,1336.45 1376.43,1336.45 1380.44,1336.45 1384.46,1336.45 1388.47,1336.45 1392.48,1336.45 1396.49,1336.45 1400.5,1336.45 1404.52,1336.45 1408.53,1336.45 1412.54,1336.45 1416.55,1336.45 1420.56,1336.45 1424.57,1336.45 1428.59,1336.45 1432.6,1336.45 1436.61,1336.45 1440.62,1336.45 1444.63,1336.45 1448.65,1336.45 1452.66,1336.45 1456.67,1336.45 1460.68,1336.45 1464.69,1336.45 1468.7,1336.45 1472.72,1336.45 1476.73,1336.45 1480.74,1336.45 1484.75,1336.45 1488.76,1336.45 1492.78,1336.45 1496.79,1336.45 1500.8,1336.45 1504.81,1336.45 1508.82,1336.45 1512.84,1336.45 1516.85,1336.45 1520.86,1336.45 1524.87,1261.11 1528.88,1261.11 1532.89,1261.11 1536.91,1261.11 1540.92,1261.11 1544.93,1261.11 1548.94,1261.11 1552.95,1261.11 1556.97,1261.11 1560.98,1261.11 1564.99,1261.11 1569,1261.11 1573.01,1261.11 1577.02,1261.11 1581.04,1261.11 1585.05,1261.11 1589.06,1261.11 1593.07,1261.11 1597.08,1261.11 1601.1,1261.11 1605.11,1261.11 1609.12,1261.11 1613.13,1261.11 1617.14,1261.11 1621.16,1261.11 1625.17,1261.11 1629.18,1261.11 1633.19,1261.11 1637.2,1261.11 1641.21,1261.11 1645.23,1261.11 1649.24,1261.11 1653.25,1261.11 1657.26,1261.11 1661.27,1261.11 1665.29,1261.11 1669.3,1261.11 1673.31,1261.11 1677.32,1261.11 1681.33,1261.11 1685.34,1261.11 1689.36,1261.11 1693.37,1261.11 1697.38,1291.52 1701.39,1291.52 1705.4,1291.52 1709.42,1291.52 1713.43,1291.52 1717.44,1291.52 1721.45,1291.52 1725.46,1291.52 1729.48,1291.52 1733.49,1291.52 1737.5,1291.52 1741.51,1291.52 1745.52,1291.52 1749.53,1291.52 1753.55,1291.52 1757.56,1291.52 1761.57,1291.52 1765.58,1291.52 1769.59,1291.52 1773.61,1291.52 1777.62,1291.52 1781.63,1291.52 1785.64,1291.52 1789.65,1291.52 1793.66,1291.52 1797.68,1291.52 1801.69,1291.52 1805.7,1291.52 1809.71,1291.52 1813.72,1291.52 1817.74,1291.52 1821.75,1291.52 1825.76,1291.52 1829.77,1291.52 1833.78,1291.52 1837.79,1291.52 1841.81,1291.52 1845.82,1291.52 1849.83,1291.52 1853.84,1310.12 1857.85,1310.12 1861.87,1310.12 1865.88,1310.12 1869.89,1310.12 1873.9,1310.12 1877.91,1310.12 1881.93,1310.12 1885.94,1310.12 1889.95,1310.12 1893.96,1310.12 1897.97,1310.12 1901.98,1310.12 1906,1310.12 1910.01,1310.12 1914.02,1310.12 1918.03,1310.12 1922.04,1310.12 1926.06,1310.12 1930.07,1310.12 1934.08,1310.12 1938.09,1310.12 1942.1,1310.12 1946.11,1310.12 1950.13,1310.12 1954.14,1310.12 1958.15,1310.12 1962.16,1310.12 1966.17,1310.12 1970.19,1310.12 1974.2,1310.12 1978.21,1310.12 1982.22,1310.12 1986.23,1310.12 1990.25,1310.12 1994.26,1310.12 1998.27,1321.79 2002.28,1321.79 2006.29,1321.79 2010.3,1321.79 2014.32,1321.79 2018.33,1321.79 2022.34,1321.79 2026.35,1321.79 2030.36,1321.79 2034.38,1321.79 2038.39,1321.79 2042.4,1321.79 2046.41,1321.79 2050.42,1321.79 2054.43,1321.79 2058.45,1321.79 2062.46,1321.79 2066.47,1321.79 2070.48,1321.79 2074.49,1321.79 2078.51,1321.79 2082.52,1321.79 2086.53,1321.79 2090.54,1321.79 2094.55,1321.79 2098.57,1321.79 2102.58,1321.79 2106.59,1321.79 2110.6,1321.79 2114.61,1321.79 2118.62,1321.79 2122.64,1321.79 2126.65,1321.79 2130.66,1321.79 2134.67,1321.79 2138.68,1321.79 2142.7,1321.79 2146.71,1321.79 2150.72,1321.79 2154.73,1321.79 2158.74,1321.79 2162.75,1321.79 2166.77,1321.79 2170.78,1321.79 2174.79,1321.79 2178.8,1321.79 2182.81,1321.79 2186.83,1321.79 2190.84,1321.79 2194.85,1314.59 2198.86,1314.59 2202.87,1314.59 2206.89,1314.59 2210.9,1314.59 2214.91,1314.59 2218.92,1314.59 2222.93,1314.59 2226.94,1314.59 2230.96,1314.59 2234.97,1314.59 2238.98,1314.59 2242.99,1314.59 2247,1314.59 2251.02,1314.59 2255.03,1314.59 2259.04,1314.59 2263.05,1314.59 2267.06,1314.59 2271.07,1314.59 2275.09,1314.59 2279.1,1314.59 2283.11,1314.59 2287.12,1314.59 2291.13,1314.59 "/>
<path clip-path="url(#clip410)" d="M248.022 248.629 L537.906 248.629 L537.906 93.1086 L248.022 93.1086  Z" fill="#ffffff" fill-rule="evenodd" fill-opacity="1"/>
<polyline clip-path="url(#clip410)" style="stroke:#000000; stroke-linecap:round; stroke-linejoin:round; stroke-width:4; stroke-opacity:1; fill:none" points="248.022,248.629 537.906,248.629 537.906,93.1086 248.022,93.1086 248.022,248.629 "/>
<polyline clip-path="url(#clip410)" style="stroke:#009af9; stroke-linecap:round; stroke-linejoin:round; stroke-width:8; stroke-opacity:1; fill:none" stroke-dasharray="32, 20" points="272.215,144.949 417.369,144.949 "/>
<path clip-path="url(#clip410)" d="M442.093 127.669 L469.246 127.669 L469.246 131.233 L447.394 158.293 L469.778 158.293 L469.778 162.229 L441.561 162.229 L441.561 158.664 L463.413 131.604 L442.093 131.604 L442.093 127.669 Z" fill="#000000" fill-rule="nonzero" fill-opacity="1" /><path clip-path="url(#clip410)" d="M496.075 170.099 L496.075 173.409 L471.445 173.409 L471.445 170.099 L496.075 170.099 Z" fill="#000000" fill-rule="nonzero" fill-opacity="1" /><path clip-path="url(#clip410)" d="M504.292 128.942 L504.292 136.303 L513.065 136.303 L513.065 139.613 L504.292 139.613 L504.292 153.687 Q504.292 156.858 505.149 157.761 Q506.028 158.664 508.69 158.664 L513.065 158.664 L513.065 162.229 L508.69 162.229 Q503.76 162.229 501.885 160.4 Q500.01 158.548 500.01 153.687 L500.01 139.613 L496.885 139.613 L496.885 136.303 L500.01 136.303 L500.01 128.942 L504.292 128.942 Z" fill="#000000" fill-rule="nonzero" fill-opacity="1" /><polyline clip-path="url(#clip410)" style="stroke:#e26f46; stroke-linecap:round; stroke-linejoin:round; stroke-width:8; stroke-opacity:1; fill:none" stroke-dasharray="32, 16, 4, 16" points="272.215,196.789 417.369,196.789 "/>
<path clip-path="url(#clip410)" d="M441.561 179.509 L446.237 179.509 L446.237 193.675 L463.228 193.675 L463.228 179.509 L467.903 179.509 L467.903 214.069 L463.228 214.069 L463.228 197.61 L446.237 197.61 L446.237 214.069 L441.561 214.069 L441.561 179.509 Z" fill="#000000" fill-rule="nonzero" fill-opacity="1" /><path clip-path="url(#clip410)" d="M496.723 221.939 L496.723 225.249 L472.093 225.249 L472.093 221.939 L496.723 221.939 Z" fill="#000000" fill-rule="nonzero" fill-opacity="1" /><path clip-path="url(#clip410)" d="M504.94 180.782 L504.94 188.143 L513.713 188.143 L513.713 191.453 L504.94 191.453 L504.94 205.527 Q504.94 208.698 505.797 209.601 Q506.676 210.504 509.338 210.504 L513.713 210.504 L513.713 214.069 L509.338 214.069 Q504.408 214.069 502.533 212.24 Q500.658 210.388 500.658 205.527 L500.658 191.453 L497.533 191.453 L497.533 188.143 L500.658 188.143 L500.658 180.782 L504.94 180.782 Z" fill="#000000" fill-rule="nonzero" fill-opacity="1" /></svg>
