<?xml version="1.0" encoding="utf-8"?>
<svg xmlns="http://www.w3.org/2000/svg" xmlns:xlink="http://www.w3.org/1999/xlink" width="600" height="400" viewBox="0 0 2400 1600">
<defs>
  <clipPath id="clip470">
    <rect x="0" y="0" width="2400" height="1600"/>
  </clipPath>
</defs>
<path clip-path="url(#clip470)" d="M0 1600 L2400 1600 L2400 0 L0 0  Z" fill="#ffffff" fill-rule="evenodd" fill-opacity="1"/>
<defs>
  <clipPath id="clip471">
    <rect x="480" y="0" width="1681" height="1600"/>
  </clipPath>
</defs>
<path clip-path="url(#clip470)" d="M219.542 1423.18 L2352.76 1423.18 L2352.76 47.2441 L219.542 47.2441  Z" fill="#ffffff" fill-rule="evenodd" fill-opacity="1"/>
<defs>
  <clipPath id="clip472">
    <rect x="219" y="47" width="2134" height="1377"/>
  </clipPath>
</defs>
<polyline clip-path="url(#clip472)" style="stroke:#000000; stroke-linecap:round; stroke-linejoin:round; stroke-width:2; stroke-opacity:0.1; fill:none" points="279.916,1423.18 279.916,47.2441 "/>
<polyline clip-path="url(#clip472)" style="stroke:#000000; stroke-linecap:round; stroke-linejoin:round; stroke-width:2; stroke-opacity:0.1; fill:none" points="783.033,1423.18 783.033,47.2441 "/>
<polyline clip-path="url(#clip472)" style="stroke:#000000; stroke-linecap:round; stroke-linejoin:round; stroke-width:2; stroke-opacity:0.1; fill:none" points="1286.15,1423.18 1286.15,47.2441 "/>
<polyline clip-path="url(#clip472)" style="stroke:#000000; stroke-linecap:round; stroke-linejoin:round; stroke-width:2; stroke-opacity:0.1; fill:none" points="1789.27,1423.18 1789.27,47.2441 "/>
<polyline clip-path="url(#clip472)" style="stroke:#000000; stroke-linecap:round; stroke-linejoin:round; stroke-width:2; stroke-opacity:0.1; fill:none" points="2292.38,1423.18 2292.38,47.2441 "/>
<polyline clip-path="url(#clip472)" style="stroke:#000000; stroke-linecap:round; stroke-linejoin:round; stroke-width:2; stroke-opacity:0.1; fill:none" points="219.542,1384.25 2352.76,1384.25 "/>
<polyline clip-path="url(#clip472)" style="stroke:#000000; stroke-linecap:round; stroke-linejoin:round; stroke-width:2; stroke-opacity:0.1; fill:none" points="219.542,1167.9 2352.76,1167.9 "/>
<polyline clip-path="url(#clip472)" style="stroke:#000000; stroke-linecap:round; stroke-linejoin:round; stroke-width:2; stroke-opacity:0.1; fill:none" points="219.542,951.56 2352.76,951.56 "/>
<polyline clip-path="url(#clip472)" style="stroke:#000000; stroke-linecap:round; stroke-linejoin:round; stroke-width:2; stroke-opacity:0.1; fill:none" points="219.542,735.216 2352.76,735.216 "/>
<polyline clip-path="url(#clip472)" style="stroke:#000000; stroke-linecap:round; stroke-linejoin:round; stroke-width:2; stroke-opacity:0.1; fill:none" points="219.542,518.873 2352.76,518.873 "/>
<polyline clip-path="url(#clip472)" style="stroke:#000000; stroke-linecap:round; stroke-linejoin:round; stroke-width:2; stroke-opacity:0.1; fill:none" points="219.542,302.529 2352.76,302.529 "/>
<polyline clip-path="url(#clip472)" style="stroke:#000000; stroke-linecap:round; stroke-linejoin:round; stroke-width:2; stroke-opacity:0.1; fill:none" points="219.542,86.1856 2352.76,86.1856 "/>
<polyline clip-path="url(#clip470)" style="stroke:#000000; stroke-linecap:round; stroke-linejoin:round; stroke-width:4; stroke-opacity:1; fill:none" points="219.542,1423.18 2352.76,1423.18 "/>
<polyline clip-path="url(#clip470)" style="stroke:#000000; stroke-linecap:round; stroke-linejoin:round; stroke-width:4; stroke-opacity:1; fill:none" points="279.916,1423.18 279.916,1404.28 "/>
<polyline clip-path="url(#clip470)" style="stroke:#000000; stroke-linecap:round; stroke-linejoin:round; stroke-width:4; stroke-opacity:1; fill:none" points="783.033,1423.18 783.033,1404.28 "/>
<polyline clip-path="url(#clip470)" style="stroke:#000000; stroke-linecap:round; stroke-linejoin:round; stroke-width:4; stroke-opacity:1; fill:none" points="1286.15,1423.18 1286.15,1404.28 "/>
<polyline clip-path="url(#clip470)" style="stroke:#000000; stroke-linecap:round; stroke-linejoin:round; stroke-width:4; stroke-opacity:1; fill:none" points="1789.27,1423.18 1789.27,1404.28 "/>
<polyline clip-path="url(#clip470)" style="stroke:#000000; stroke-linecap:round; stroke-linejoin:round; stroke-width:4; stroke-opacity:1; fill:none" points="2292.38,1423.18 2292.38,1404.28 "/>
<path clip-path="url(#clip470)" d="M242.22 1454.1 Q238.609 1454.1 236.78 1457.66 Q234.974 1461.2 234.974 1468.33 Q234.974 1475.44 236.78 1479.01 Q238.609 1482.55 242.22 1482.55 Q245.854 1482.55 247.659 1479.01 Q249.488 1475.44 249.488 1468.33 Q249.488 1461.2 247.659 1457.66 Q245.854 1454.1 242.22 1454.1 M242.22 1450.39 Q248.03 1450.39 251.085 1455 Q254.164 1459.58 254.164 1468.33 Q254.164 1477.06 251.085 1481.67 Q248.03 1486.25 242.22 1486.25 Q236.409 1486.25 233.331 1481.67 Q230.275 1477.06 230.275 1468.33 Q230.275 1459.58 233.331 1455 Q236.409 1450.39 242.22 1450.39 Z" fill="#000000" fill-rule="nonzero" fill-opacity="1" /><path clip-path="url(#clip470)" d="M262.382 1479.7 L267.266 1479.7 L267.266 1485.58 L262.382 1485.58 L262.382 1479.7 Z" fill="#000000" fill-rule="nonzero" fill-opacity="1" /><path clip-path="url(#clip470)" d="M287.451 1454.1 Q283.84 1454.1 282.011 1457.66 Q280.206 1461.2 280.206 1468.33 Q280.206 1475.44 282.011 1479.01 Q283.84 1482.55 287.451 1482.55 Q291.085 1482.55 292.891 1479.01 Q294.719 1475.44 294.719 1468.33 Q294.719 1461.2 292.891 1457.66 Q291.085 1454.1 287.451 1454.1 M287.451 1450.39 Q293.261 1450.39 296.317 1455 Q299.395 1459.58 299.395 1468.33 Q299.395 1477.06 296.317 1481.67 Q293.261 1486.25 287.451 1486.25 Q281.641 1486.25 278.562 1481.67 Q275.506 1477.06 275.506 1468.33 Q275.506 1459.58 278.562 1455 Q281.641 1450.39 287.451 1450.39 Z" fill="#000000" fill-rule="nonzero" fill-opacity="1" /><path clip-path="url(#clip470)" d="M317.613 1454.1 Q314.002 1454.1 312.173 1457.66 Q310.367 1461.2 310.367 1468.33 Q310.367 1475.44 312.173 1479.01 Q314.002 1482.55 317.613 1482.55 Q321.247 1482.55 323.053 1479.01 Q324.881 1475.44 324.881 1468.33 Q324.881 1461.2 323.053 1457.66 Q321.247 1454.1 317.613 1454.1 M317.613 1450.39 Q323.423 1450.39 326.478 1455 Q329.557 1459.58 329.557 1468.33 Q329.557 1477.06 326.478 1481.67 Q323.423 1486.25 317.613 1486.25 Q311.803 1486.25 308.724 1481.67 Q305.668 1477.06 305.668 1468.33 Q305.668 1459.58 308.724 1455 Q311.803 1450.39 317.613 1450.39 Z" fill="#000000" fill-rule="nonzero" fill-opacity="1" /><path clip-path="url(#clip470)" d="M745.834 1454.1 Q742.223 1454.1 740.394 1457.66 Q738.588 1461.2 738.588 1468.33 Q738.588 1475.44 740.394 1479.01 Q742.223 1482.55 745.834 1482.55 Q749.468 1482.55 751.274 1479.01 Q753.102 1475.44 753.102 1468.33 Q753.102 1461.2 751.274 1457.66 Q749.468 1454.1 745.834 1454.1 M745.834 1450.39 Q751.644 1450.39 754.699 1455 Q757.778 1459.58 757.778 1468.33 Q757.778 1477.06 754.699 1481.67 Q751.644 1486.25 745.834 1486.25 Q740.024 1486.25 736.945 1481.67 Q733.889 1477.06 733.889 1468.33 Q733.889 1459.58 736.945 1455 Q740.024 1450.39 745.834 1450.39 Z" fill="#000000" fill-rule="nonzero" fill-opacity="1" /><path clip-path="url(#clip470)" d="M765.996 1479.7 L770.88 1479.7 L770.88 1485.58 L765.996 1485.58 L765.996 1479.7 Z" fill="#000000" fill-rule="nonzero" fill-opacity="1" /><path clip-path="url(#clip470)" d="M785.093 1481.64 L801.412 1481.64 L801.412 1485.58 L779.468 1485.58 L779.468 1481.64 Q782.13 1478.89 786.713 1474.26 Q791.32 1469.61 792.5 1468.27 Q794.746 1465.74 795.625 1464.01 Q796.528 1462.25 796.528 1460.56 Q796.528 1457.8 794.583 1456.07 Q792.662 1454.33 789.56 1454.33 Q787.361 1454.33 784.908 1455.09 Q782.477 1455.86 779.699 1457.41 L779.699 1452.69 Q782.523 1451.55 784.977 1450.97 Q787.431 1450.39 789.468 1450.39 Q794.838 1450.39 798.033 1453.08 Q801.227 1455.77 801.227 1460.26 Q801.227 1462.39 800.417 1464.31 Q799.63 1466.2 797.523 1468.8 Q796.945 1469.47 793.843 1472.69 Q790.741 1475.88 785.093 1481.64 Z" fill="#000000" fill-rule="nonzero" fill-opacity="1" /><path clip-path="url(#clip470)" d="M811.273 1451.02 L829.63 1451.02 L829.63 1454.96 L815.556 1454.96 L815.556 1463.43 Q816.574 1463.08 817.593 1462.92 Q818.611 1462.73 819.63 1462.73 Q825.417 1462.73 828.796 1465.9 Q832.176 1469.08 832.176 1474.49 Q832.176 1480.07 828.704 1483.17 Q825.231 1486.25 818.912 1486.25 Q816.736 1486.25 814.468 1485.88 Q812.222 1485.51 809.815 1484.77 L809.815 1480.07 Q811.898 1481.2 814.12 1481.76 Q816.343 1482.32 818.819 1482.32 Q822.824 1482.32 825.162 1480.21 Q827.5 1478.1 827.5 1474.49 Q827.5 1470.88 825.162 1468.77 Q822.824 1466.67 818.819 1466.67 Q816.944 1466.67 815.069 1467.08 Q813.218 1467.5 811.273 1468.38 L811.273 1451.02 Z" fill="#000000" fill-rule="nonzero" fill-opacity="1" /><path clip-path="url(#clip470)" d="M1248.45 1454.1 Q1244.84 1454.1 1243.01 1457.66 Q1241.21 1461.2 1241.21 1468.33 Q1241.21 1475.44 1243.01 1479.01 Q1244.84 1482.55 1248.45 1482.55 Q1252.09 1482.55 1253.89 1479.01 Q1255.72 1475.44 1255.72 1468.33 Q1255.72 1461.2 1253.89 1457.66 Q1252.09 1454.1 1248.45 1454.1 M1248.45 1450.39 Q1254.26 1450.39 1257.32 1455 Q1260.4 1459.58 1260.4 1468.33 Q1260.4 1477.06 1257.32 1481.67 Q1254.26 1486.25 1248.45 1486.25 Q1242.64 1486.25 1239.56 1481.67 Q1236.51 1477.06 1236.51 1468.33 Q1236.51 1459.58 1239.56 1455 Q1242.64 1450.39 1248.45 1450.39 Z" fill="#000000" fill-rule="nonzero" fill-opacity="1" /><path clip-path="url(#clip470)" d="M1268.61 1479.7 L1273.5 1479.7 L1273.5 1485.58 L1268.61 1485.58 L1268.61 1479.7 Z" fill="#000000" fill-rule="nonzero" fill-opacity="1" /><path clip-path="url(#clip470)" d="M1283.73 1451.02 L1302.09 1451.02 L1302.09 1454.96 L1288.01 1454.96 L1288.01 1463.43 Q1289.03 1463.08 1290.05 1462.92 Q1291.07 1462.73 1292.09 1462.73 Q1297.87 1462.73 1301.25 1465.9 Q1304.63 1469.08 1304.63 1474.49 Q1304.63 1480.07 1301.16 1483.17 Q1297.69 1486.25 1291.37 1486.25 Q1289.19 1486.25 1286.92 1485.88 Q1284.68 1485.51 1282.27 1484.77 L1282.27 1480.07 Q1284.36 1481.2 1286.58 1481.76 Q1288.8 1482.32 1291.28 1482.32 Q1295.28 1482.32 1297.62 1480.21 Q1299.96 1478.1 1299.96 1474.49 Q1299.96 1470.88 1297.62 1468.77 Q1295.28 1466.67 1291.28 1466.67 Q1289.4 1466.67 1287.53 1467.08 Q1285.67 1467.5 1283.73 1468.38 L1283.73 1451.02 Z" fill="#000000" fill-rule="nonzero" fill-opacity="1" /><path clip-path="url(#clip470)" d="M1323.85 1454.1 Q1320.23 1454.1 1318.41 1457.66 Q1316.6 1461.2 1316.6 1468.33 Q1316.6 1475.44 1318.41 1479.01 Q1320.23 1482.55 1323.85 1482.55 Q1327.48 1482.55 1329.29 1479.01 Q1331.11 1475.44 1331.11 1468.33 Q1331.11 1461.2 1329.29 1457.66 Q1327.48 1454.1 1323.85 1454.1 M1323.85 1450.39 Q1329.66 1450.39 1332.71 1455 Q1335.79 1459.58 1335.79 1468.33 Q1335.79 1477.06 1332.71 1481.67 Q1329.66 1486.25 1323.85 1486.25 Q1318.04 1486.25 1314.96 1481.67 Q1311.9 1477.06 1311.9 1468.33 Q1311.9 1459.58 1314.96 1455 Q1318.04 1450.39 1323.85 1450.39 Z" fill="#000000" fill-rule="nonzero" fill-opacity="1" /><path clip-path="url(#clip470)" d="M1752.07 1454.1 Q1748.46 1454.1 1746.63 1457.66 Q1744.82 1461.2 1744.82 1468.33 Q1744.82 1475.44 1746.63 1479.01 Q1748.46 1482.55 1752.07 1482.55 Q1755.7 1482.55 1757.51 1479.01 Q1759.34 1475.44 1759.34 1468.33 Q1759.34 1461.2 1757.51 1457.66 Q1755.7 1454.1 1752.07 1454.1 M1752.07 1450.39 Q1757.88 1450.39 1760.93 1455 Q1764.01 1459.58 1764.01 1468.33 Q1764.01 1477.06 1760.93 1481.67 Q1757.88 1486.25 1752.07 1486.25 Q1746.26 1486.25 1743.18 1481.67 Q1740.12 1477.06 1740.12 1468.33 Q1740.12 1459.58 1743.18 1455 Q1746.26 1450.39 1752.07 1450.39 Z" fill="#000000" fill-rule="nonzero" fill-opacity="1" /><path clip-path="url(#clip470)" d="M1772.23 1479.7 L1777.11 1479.7 L1777.11 1485.58 L1772.23 1485.58 L1772.23 1479.7 Z" fill="#000000" fill-rule="nonzero" fill-opacity="1" /><path clip-path="url(#clip470)" d="M1786.12 1451.02 L1808.34 1451.02 L1808.34 1453.01 L1795.79 1485.58 L1790.91 1485.58 L1802.71 1454.96 L1786.12 1454.96 L1786.12 1451.02 Z" fill="#000000" fill-rule="nonzero" fill-opacity="1" /><path clip-path="url(#clip470)" d="M1817.51 1451.02 L1835.86 1451.02 L1835.86 1454.96 L1821.79 1454.96 L1821.79 1463.43 Q1822.81 1463.08 1823.83 1462.92 Q1824.84 1462.73 1825.86 1462.73 Q1831.65 1462.73 1835.03 1465.9 Q1838.41 1469.08 1838.41 1474.49 Q1838.41 1480.07 1834.94 1483.17 Q1831.46 1486.25 1825.14 1486.25 Q1822.97 1486.25 1820.7 1485.88 Q1818.46 1485.51 1816.05 1484.77 L1816.05 1480.07 Q1818.13 1481.2 1820.35 1481.76 Q1822.58 1482.32 1825.05 1482.32 Q1829.06 1482.32 1831.39 1480.21 Q1833.73 1478.1 1833.73 1474.49 Q1833.73 1470.88 1831.39 1468.77 Q1829.06 1466.67 1825.05 1466.67 Q1823.18 1466.67 1821.3 1467.08 Q1819.45 1467.5 1817.51 1468.38 L1817.51 1451.02 Z" fill="#000000" fill-rule="nonzero" fill-opacity="1" /><path clip-path="url(#clip470)" d="M2244.45 1481.64 L2252.09 1481.64 L2252.09 1455.28 L2243.78 1456.95 L2243.78 1452.69 L2252.05 1451.02 L2256.72 1451.02 L2256.72 1481.64 L2264.36 1481.64 L2264.36 1485.58 L2244.45 1485.58 L2244.45 1481.64 Z" fill="#000000" fill-rule="nonzero" fill-opacity="1" /><path clip-path="url(#clip470)" d="M2273.81 1479.7 L2278.69 1479.7 L2278.69 1485.58 L2273.81 1485.58 L2273.81 1479.7 Z" fill="#000000" fill-rule="nonzero" fill-opacity="1" /><path clip-path="url(#clip470)" d="M2298.87 1454.1 Q2295.26 1454.1 2293.44 1457.66 Q2291.63 1461.2 2291.63 1468.33 Q2291.63 1475.44 2293.44 1479.01 Q2295.26 1482.55 2298.87 1482.55 Q2302.51 1482.55 2304.31 1479.01 Q2306.14 1475.44 2306.14 1468.33 Q2306.14 1461.2 2304.31 1457.66 Q2302.51 1454.1 2298.87 1454.1 M2298.87 1450.39 Q2304.69 1450.39 2307.74 1455 Q2310.82 1459.58 2310.82 1468.33 Q2310.82 1477.06 2307.74 1481.67 Q2304.69 1486.25 2298.87 1486.25 Q2293.06 1486.25 2289.99 1481.67 Q2286.93 1477.06 2286.93 1468.33 Q2286.93 1459.58 2289.99 1455 Q2293.06 1450.39 2298.87 1450.39 Z" fill="#000000" fill-rule="nonzero" fill-opacity="1" /><path clip-path="url(#clip470)" d="M2329.04 1454.1 Q2325.43 1454.1 2323.6 1457.66 Q2321.79 1461.2 2321.79 1468.33 Q2321.79 1475.44 2323.6 1479.01 Q2325.43 1482.55 2329.04 1482.55 Q2332.67 1482.55 2334.48 1479.01 Q2336.31 1475.44 2336.31 1468.33 Q2336.31 1461.2 2334.48 1457.66 Q2332.67 1454.1 2329.04 1454.1 M2329.04 1450.39 Q2334.85 1450.39 2337.9 1455 Q2340.98 1459.58 2340.98 1468.33 Q2340.98 1477.06 2337.9 1481.67 Q2334.85 1486.25 2329.04 1486.25 Q2323.23 1486.25 2320.15 1481.67 Q2317.09 1477.06 2317.09 1468.33 Q2317.09 1459.58 2320.15 1455 Q2323.23 1450.39 2329.04 1450.39 Z" fill="#000000" fill-rule="nonzero" fill-opacity="1" /><path clip-path="url(#clip470)" d="M1294.62 1531.91 Q1294.62 1532.81 1294.2 1533.04 Q1293.78 1533.23 1292.62 1533.23 L1286.44 1533.23 L1281.54 1552.69 Q1281.16 1554.39 1281.16 1555.84 Q1281.16 1557.45 1281.64 1558.16 Q1282.16 1558.87 1283.22 1558.87 Q1285.31 1558.87 1287.57 1556.97 Q1289.85 1555.07 1291.79 1550.43 Q1292.04 1549.82 1292.17 1549.69 Q1292.33 1549.53 1292.75 1549.53 Q1293.56 1549.53 1293.56 1550.17 Q1293.56 1550.4 1293.11 1551.43 Q1292.69 1552.46 1291.75 1553.97 Q1290.85 1555.49 1289.66 1556.9 Q1288.5 1558.32 1286.73 1559.35 Q1284.96 1560.35 1283.06 1560.35 Q1280.39 1560.35 1278.68 1558.64 Q1277 1556.94 1277 1554.26 Q1277 1553.39 1277.68 1550.62 Q1278.36 1547.82 1282.03 1533.23 L1276.2 1533.23 Q1275.39 1533.23 1275.07 1533.2 Q1274.78 1533.17 1274.56 1533.01 Q1274.36 1532.81 1274.36 1532.43 Q1274.36 1531.82 1274.62 1531.56 Q1274.88 1531.27 1275.2 1531.24 Q1275.55 1531.17 1276.36 1531.17 L1282.54 1531.17 L1285.12 1520.71 Q1285.38 1519.67 1286.02 1519.09 Q1286.7 1518.48 1287.08 1518.42 Q1287.47 1518.32 1287.76 1518.32 Q1288.63 1518.32 1289.15 1518.81 Q1289.66 1519.26 1289.66 1520.09 Q1289.66 1520.54 1286.96 1531.17 L1292.75 1531.17 Q1293.49 1531.17 1293.78 1531.2 Q1294.1 1531.24 1294.36 1531.4 Q1294.62 1531.56 1294.62 1531.91 Z" fill="#000000" fill-rule="nonzero" fill-opacity="1" /><polyline clip-path="url(#clip470)" style="stroke:#000000; stroke-linecap:round; stroke-linejoin:round; stroke-width:4; stroke-opacity:1; fill:none" points="219.542,1423.18 219.542,47.2441 "/>
<polyline clip-path="url(#clip470)" style="stroke:#000000; stroke-linecap:round; stroke-linejoin:round; stroke-width:4; stroke-opacity:1; fill:none" points="219.542,1384.25 238.44,1384.25 "/>
<polyline clip-path="url(#clip470)" style="stroke:#000000; stroke-linecap:round; stroke-linejoin:round; stroke-width:4; stroke-opacity:1; fill:none" points="219.542,1167.9 238.44,1167.9 "/>
<polyline clip-path="url(#clip470)" style="stroke:#000000; stroke-linecap:round; stroke-linejoin:round; stroke-width:4; stroke-opacity:1; fill:none" points="219.542,951.56 238.44,951.56 "/>
<polyline clip-path="url(#clip470)" style="stroke:#000000; stroke-linecap:round; stroke-linejoin:round; stroke-width:4; stroke-opacity:1; fill:none" points="219.542,735.216 238.44,735.216 "/>
<polyline clip-path="url(#clip470)" style="stroke:#000000; stroke-linecap:round; stroke-linejoin:round; stroke-width:4; stroke-opacity:1; fill:none" points="219.542,518.873 238.44,518.873 "/>
<polyline clip-path="url(#clip470)" style="stroke:#000000; stroke-linecap:round; stroke-linejoin:round; stroke-width:4; stroke-opacity:1; fill:none" points="219.542,302.529 238.44,302.529 "/>
<polyline clip-path="url(#clip470)" style="stroke:#000000; stroke-linecap:round; stroke-linejoin:round; stroke-width:4; stroke-opacity:1; fill:none" points="219.542,86.1856 238.44,86.1856 "/>
<path clip-path="url(#clip470)" d="M127.362 1370.05 Q123.751 1370.05 121.922 1373.61 Q120.117 1377.15 120.117 1384.28 Q120.117 1391.39 121.922 1394.95 Q123.751 1398.49 127.362 1398.49 Q130.996 1398.49 132.802 1394.95 Q134.63 1391.39 134.63 1384.28 Q134.63 1377.15 132.802 1373.61 Q130.996 1370.05 127.362 1370.05 M127.362 1366.34 Q133.172 1366.34 136.228 1370.95 Q139.306 1375.53 139.306 1384.28 Q139.306 1393.01 136.228 1397.62 Q133.172 1402.2 127.362 1402.2 Q121.552 1402.2 118.473 1397.62 Q115.418 1393.01 115.418 1384.28 Q115.418 1375.53 118.473 1370.95 Q121.552 1366.34 127.362 1366.34 Z" fill="#000000" fill-rule="nonzero" fill-opacity="1" /><path clip-path="url(#clip470)" d="M147.524 1395.65 L152.408 1395.65 L152.408 1401.53 L147.524 1401.53 L147.524 1395.65 Z" fill="#000000" fill-rule="nonzero" fill-opacity="1" /><path clip-path="url(#clip470)" d="M162.64 1366.97 L180.996 1366.97 L180.996 1370.9 L166.922 1370.9 L166.922 1379.37 Q167.94 1379.03 168.959 1378.87 Q169.977 1378.68 170.996 1378.68 Q176.783 1378.68 180.163 1381.85 Q183.542 1385.02 183.542 1390.44 Q183.542 1396.02 180.07 1399.12 Q176.598 1402.2 170.278 1402.2 Q168.102 1402.2 165.834 1401.83 Q163.589 1401.46 161.181 1400.72 L161.181 1396.02 Q163.265 1397.15 165.487 1397.71 Q167.709 1398.26 170.186 1398.26 Q174.19 1398.26 176.528 1396.16 Q178.866 1394.05 178.866 1390.44 Q178.866 1386.83 176.528 1384.72 Q174.19 1382.62 170.186 1382.62 Q168.311 1382.62 166.436 1383.03 Q164.584 1383.45 162.64 1384.33 L162.64 1366.97 Z" fill="#000000" fill-rule="nonzero" fill-opacity="1" /><path clip-path="url(#clip470)" d="M126.205 1153.7 Q122.593 1153.7 120.765 1157.27 Q118.959 1160.81 118.959 1167.94 Q118.959 1175.04 120.765 1178.61 Q122.593 1182.15 126.205 1182.15 Q129.839 1182.15 131.644 1178.61 Q133.473 1175.04 133.473 1167.94 Q133.473 1160.81 131.644 1157.27 Q129.839 1153.7 126.205 1153.7 M126.205 1150 Q132.015 1150 135.07 1154.61 Q138.149 1159.19 138.149 1167.94 Q138.149 1176.67 135.07 1181.27 Q132.015 1185.86 126.205 1185.86 Q120.394 1185.86 117.316 1181.27 Q114.26 1176.67 114.26 1167.94 Q114.26 1159.19 117.316 1154.61 Q120.394 1150 126.205 1150 Z" fill="#000000" fill-rule="nonzero" fill-opacity="1" /><path clip-path="url(#clip470)" d="M146.366 1179.3 L151.251 1179.3 L151.251 1185.18 L146.366 1185.18 L146.366 1179.3 Z" fill="#000000" fill-rule="nonzero" fill-opacity="1" /><path clip-path="url(#clip470)" d="M172.014 1166.04 Q168.866 1166.04 167.015 1168.19 Q165.186 1170.35 165.186 1174.1 Q165.186 1177.82 167.015 1180 Q168.866 1182.15 172.014 1182.15 Q175.163 1182.15 176.991 1180 Q178.843 1177.82 178.843 1174.1 Q178.843 1170.35 176.991 1168.19 Q175.163 1166.04 172.014 1166.04 M181.297 1151.39 L181.297 1155.65 Q179.538 1154.81 177.732 1154.37 Q175.95 1153.93 174.19 1153.93 Q169.561 1153.93 167.107 1157.06 Q164.677 1160.18 164.329 1166.5 Q165.695 1164.49 167.755 1163.42 Q169.815 1162.34 172.292 1162.34 Q177.501 1162.34 180.51 1165.51 Q183.542 1168.66 183.542 1174.1 Q183.542 1179.42 180.394 1182.64 Q177.246 1185.86 172.014 1185.86 Q166.019 1185.86 162.848 1181.27 Q159.677 1176.67 159.677 1167.94 Q159.677 1159.74 163.565 1154.88 Q167.454 1150 174.005 1150 Q175.764 1150 177.547 1150.35 Q179.352 1150.69 181.297 1151.39 Z" fill="#000000" fill-rule="nonzero" fill-opacity="1" /><path clip-path="url(#clip470)" d="M127.269 937.359 Q123.658 937.359 121.83 940.924 Q120.024 944.465 120.024 951.595 Q120.024 958.701 121.83 962.266 Q123.658 965.808 127.269 965.808 Q130.904 965.808 132.709 962.266 Q134.538 958.701 134.538 951.595 Q134.538 944.465 132.709 940.924 Q130.904 937.359 127.269 937.359 M127.269 933.655 Q133.08 933.655 136.135 938.262 Q139.214 942.845 139.214 951.595 Q139.214 960.322 136.135 964.928 Q133.08 969.511 127.269 969.511 Q121.459 969.511 118.381 964.928 Q115.325 960.322 115.325 951.595 Q115.325 942.845 118.381 938.262 Q121.459 933.655 127.269 933.655 Z" fill="#000000" fill-rule="nonzero" fill-opacity="1" /><path clip-path="url(#clip470)" d="M147.431 962.961 L152.316 962.961 L152.316 968.84 L147.431 968.84 L147.431 962.961 Z" fill="#000000" fill-rule="nonzero" fill-opacity="1" /><path clip-path="url(#clip470)" d="M161.32 934.28 L183.542 934.28 L183.542 936.271 L170.996 968.84 L166.112 968.84 L177.917 938.215 L161.32 938.215 L161.32 934.28 Z" fill="#000000" fill-rule="nonzero" fill-opacity="1" /><path clip-path="url(#clip470)" d="M126.459 721.015 Q122.848 721.015 121.019 724.58 Q119.214 728.122 119.214 735.251 Q119.214 742.358 121.019 745.922 Q122.848 749.464 126.459 749.464 Q130.093 749.464 131.899 745.922 Q133.728 742.358 133.728 735.251 Q133.728 728.122 131.899 724.58 Q130.093 721.015 126.459 721.015 M126.459 717.312 Q132.269 717.312 135.325 721.918 Q138.404 726.501 138.404 735.251 Q138.404 743.978 135.325 748.584 Q132.269 753.168 126.459 753.168 Q120.649 753.168 117.57 748.584 Q114.515 743.978 114.515 735.251 Q114.515 726.501 117.57 721.918 Q120.649 717.312 126.459 717.312 Z" fill="#000000" fill-rule="nonzero" fill-opacity="1" /><path clip-path="url(#clip470)" d="M146.621 746.617 L151.505 746.617 L151.505 752.496 L146.621 752.496 L146.621 746.617 Z" fill="#000000" fill-rule="nonzero" fill-opacity="1" /><path clip-path="url(#clip470)" d="M171.69 736.085 Q168.357 736.085 166.436 737.867 Q164.538 739.649 164.538 742.774 Q164.538 745.899 166.436 747.682 Q168.357 749.464 171.69 749.464 Q175.024 749.464 176.945 747.682 Q178.866 745.876 178.866 742.774 Q178.866 739.649 176.945 737.867 Q175.047 736.085 171.69 736.085 M167.015 734.094 Q164.005 733.353 162.315 731.293 Q160.649 729.233 160.649 726.27 Q160.649 722.126 163.589 719.719 Q166.552 717.312 171.69 717.312 Q176.852 717.312 179.792 719.719 Q182.732 722.126 182.732 726.27 Q182.732 729.233 181.042 731.293 Q179.376 733.353 176.389 734.094 Q179.769 734.881 181.644 737.173 Q183.542 739.464 183.542 742.774 Q183.542 747.797 180.464 750.483 Q177.408 753.168 171.69 753.168 Q165.973 753.168 162.894 750.483 Q159.839 747.797 159.839 742.774 Q159.839 739.464 161.737 737.173 Q163.635 734.881 167.015 734.094 M165.302 726.71 Q165.302 729.395 166.968 730.899 Q168.658 732.404 171.69 732.404 Q174.7 732.404 176.389 730.899 Q178.102 729.395 178.102 726.71 Q178.102 724.024 176.389 722.52 Q174.7 721.015 171.69 721.015 Q168.658 721.015 166.968 722.52 Q165.302 724.024 165.302 726.71 Z" fill="#000000" fill-rule="nonzero" fill-opacity="1" /><path clip-path="url(#clip470)" d="M126.552 504.672 Q122.941 504.672 121.112 508.236 Q119.306 511.778 119.306 518.908 Q119.306 526.014 121.112 529.579 Q122.941 533.12 126.552 533.12 Q130.186 533.12 131.992 529.579 Q133.82 526.014 133.82 518.908 Q133.82 511.778 131.992 508.236 Q130.186 504.672 126.552 504.672 M126.552 500.968 Q132.362 500.968 135.417 505.574 Q138.496 510.158 138.496 518.908 Q138.496 527.634 135.417 532.241 Q132.362 536.824 126.552 536.824 Q120.742 536.824 117.663 532.241 Q114.607 527.634 114.607 518.908 Q114.607 510.158 117.663 505.574 Q120.742 500.968 126.552 500.968 Z" fill="#000000" fill-rule="nonzero" fill-opacity="1" /><path clip-path="url(#clip470)" d="M146.714 530.273 L151.598 530.273 L151.598 536.153 L146.714 536.153 L146.714 530.273 Z" fill="#000000" fill-rule="nonzero" fill-opacity="1" /><path clip-path="url(#clip470)" d="M161.922 535.435 L161.922 531.176 Q163.681 532.009 165.487 532.449 Q167.292 532.889 169.028 532.889 Q173.658 532.889 176.089 529.787 Q178.542 526.662 178.889 520.32 Q177.547 522.31 175.487 523.375 Q173.427 524.44 170.927 524.44 Q165.741 524.44 162.709 521.315 Q159.7 518.167 159.7 512.727 Q159.7 507.403 162.848 504.185 Q165.996 500.968 171.227 500.968 Q177.223 500.968 180.371 505.574 Q183.542 510.158 183.542 518.908 Q183.542 527.079 179.653 531.963 Q175.788 536.824 169.237 536.824 Q167.477 536.824 165.672 536.477 Q163.866 536.13 161.922 535.435 M171.227 520.783 Q174.376 520.783 176.204 518.63 Q178.056 516.477 178.056 512.727 Q178.056 509 176.204 506.847 Q174.376 504.672 171.227 504.672 Q168.079 504.672 166.227 506.847 Q164.399 509 164.399 512.727 Q164.399 516.477 166.227 518.63 Q168.079 520.783 171.227 520.783 Z" fill="#000000" fill-rule="nonzero" fill-opacity="1" /><path clip-path="url(#clip470)" d="M117.177 315.874 L124.816 315.874 L124.816 289.508 L116.506 291.175 L116.506 286.916 L124.769 285.249 L129.445 285.249 L129.445 315.874 L137.084 315.874 L137.084 319.809 L117.177 319.809 L117.177 315.874 Z" fill="#000000" fill-rule="nonzero" fill-opacity="1" /><path clip-path="url(#clip470)" d="M146.529 313.93 L151.413 313.93 L151.413 319.809 L146.529 319.809 L146.529 313.93 Z" fill="#000000" fill-rule="nonzero" fill-opacity="1" /><path clip-path="url(#clip470)" d="M171.598 288.328 Q167.987 288.328 166.158 291.893 Q164.352 295.434 164.352 302.564 Q164.352 309.67 166.158 313.235 Q167.987 316.777 171.598 316.777 Q175.232 316.777 177.038 313.235 Q178.866 309.67 178.866 302.564 Q178.866 295.434 177.038 291.893 Q175.232 288.328 171.598 288.328 M171.598 284.624 Q177.408 284.624 180.464 289.231 Q183.542 293.814 183.542 302.564 Q183.542 311.291 180.464 315.897 Q177.408 320.481 171.598 320.481 Q165.788 320.481 162.709 315.897 Q159.653 311.291 159.653 302.564 Q159.653 293.814 162.709 289.231 Q165.788 284.624 171.598 284.624 Z" fill="#000000" fill-rule="nonzero" fill-opacity="1" /><path clip-path="url(#clip470)" d="M118.404 99.5305 L126.043 99.5305 L126.043 73.1649 L117.732 74.8315 L117.732 70.5723 L125.996 68.9056 L130.672 68.9056 L130.672 99.5305 L138.311 99.5305 L138.311 103.466 L118.404 103.466 L118.404 99.5305 Z" fill="#000000" fill-rule="nonzero" fill-opacity="1" /><path clip-path="url(#clip470)" d="M147.755 97.586 L152.64 97.586 L152.64 103.466 L147.755 103.466 L147.755 97.586 Z" fill="#000000" fill-rule="nonzero" fill-opacity="1" /><path clip-path="url(#clip470)" d="M163.635 99.5305 L171.274 99.5305 L171.274 73.1649 L162.964 74.8315 L162.964 70.5723 L171.227 68.9056 L175.903 68.9056 L175.903 99.5305 L183.542 99.5305 L183.542 103.466 L163.635 103.466 L163.635 99.5305 Z" fill="#000000" fill-rule="nonzero" fill-opacity="1" /><path clip-path="url(#clip470)" d="M30.8561 720.775 Q31.307 720.775 32.3698 721.064 L57.5548 727.377 Q63.1586 728.762 67.0877 733.27 Q71.0168 737.747 71.0168 742.836 Q71.0168 745.895 69.3743 747.86 Q67.764 749.824 65.2842 749.824 Q63.0942 749.824 62.0314 748.665 Q61.0008 747.505 61.0008 746.121 Q61.0008 745.67 61.1296 745.187 Q61.2584 744.703 61.8059 744.188 Q62.3534 743.673 63.2874 743.673 Q64.8011 743.673 65.9927 744.993 Q66.5402 745.637 66.669 746.249 Q66.7978 746.829 66.7978 747.827 Q67.6996 747.441 68.3115 746.732 Q68.9234 746.024 69.1489 745.219 Q69.4065 744.414 69.4709 743.898 Q69.5675 743.351 69.5675 742.836 Q69.5675 738.713 65.413 735.557 Q64.157 734.623 62.9009 733.947 Q61.6771 733.238 60.1634 732.723 Q58.682 732.208 57.8768 731.982 Q57.0717 731.725 55.2359 731.274 Q58.2311 734.269 58.2311 737.94 Q58.2311 739.486 57.8124 740.871 Q57.3937 742.224 56.5242 743.415 Q55.6224 744.607 54.0443 745.315 Q52.4662 745.992 50.3728 745.992 Q48.1506 745.992 45.1233 745.122 Q42.0959 744.253 36.5243 742.159 Q33.4004 741.032 31.8867 741.032 Q31.146 741.032 30.6951 741.193 Q30.212 741.354 30.051 741.676 Q29.8577 741.998 29.8255 742.191 Q29.7933 742.352 29.7933 742.675 Q29.7933 744.575 31.7257 746.346 Q33.658 748.117 37.9736 749.341 Q38.7787 749.599 38.972 749.76 Q39.1652 749.921 39.1652 750.404 Q39.133 751.209 38.4889 751.209 Q38.2312 751.209 37.2329 750.919 Q36.2023 750.629 34.6886 749.953 Q33.1427 749.245 31.7579 748.278 Q30.3408 747.312 29.3424 745.798 Q28.344 744.253 28.344 742.481 Q28.344 740.066 29.9221 738.584 Q31.468 737.071 33.7546 737.071 Q34.6886 737.071 35.5259 737.328 Q36.3311 737.554 38.4889 738.391 Q47.1845 741.773 51.4356 741.773 Q52.4662 741.773 53.3358 741.612 Q54.1731 741.418 55.0105 741 Q55.8156 740.581 56.2987 739.744 Q56.7496 738.874 56.7496 737.683 Q56.7496 736.169 56.0411 734.752 Q55.3003 733.303 54.302 732.401 Q53.3036 731.467 52.4662 730.919 Q51.5967 730.34 51.1458 730.211 L39.294 727.248 L34.0123 725.927 Q31.146 725.316 30.4374 725.026 Q29.7611 724.639 29.4068 723.963 Q29.0526 723.287 29.0526 722.707 Q29.0526 721.902 29.5357 721.354 Q30.0187 720.775 30.8561 720.775 Z" fill="#000000" fill-rule="nonzero" fill-opacity="1" /><polyline clip-path="url(#clip472)" style="stroke:#e26f46; stroke-linecap:round; stroke-linejoin:round; stroke-width:8; stroke-opacity:1; fill:none" stroke-dasharray="32, 20" points="279.916,189.076 283.847,207.342 287.777,205.205 291.708,192.061 295.639,202.287 299.569,196.417 303.5,200.379 307.43,215.837 311.361,182.918 315.292,179.74 319.222,179.563 323.153,183.067 327.083,195.628 331.014,216.548 334.945,199.156 338.875,172.269 342.806,147.471 346.736,130.986 350.667,112.669 354.598,108.693 358.528,106.842 362.459,107.288 366.389,105.185 370.32,105.567 374.25,101.955 378.181,103.04 382.112,102.809 386.042,107.573 389.973,115.537 393.903,126.249 397.834,117.347 401.765,105.426 405.695,106.19 409.626,105.945 413.556,96.9585 417.487,102.346 421.418,93.9433 425.348,90.7669 429.279,93.9251 433.209,92.7604 437.14,92.0274 441.071,92.2099 445.001,93.4438 448.932,86.919 452.862,86.3238 456.793,86.3822 460.724,88.1871 464.654,87.6474 468.585,86.3888 472.515,90.183 476.446,91.3416 480.377,87.8327 484.307,91.3124 488.238,86.345 492.168,89.4601 496.099,89.9691 500.03,86.6153 503.96,88.98 507.891,86.197 511.821,86.6649 515.752,87.8303 519.683,87.1923 523.613,91.7979 527.544,92.7048 531.474,108.658 535.405,104.479 539.336,112.113 543.266,106.546 547.197,108.056 551.127,119.461 555.058,126.351 558.989,108.495 562.919,101.916 566.85,91.0869 570.78,94.6966 574.711,86.4062 578.642,88.5895 582.572,86.3225 586.503,86.2901 590.433,86.1908 594.364,86.226 598.295,87.4165 602.225,87.4767 606.156,86.4651 610.086,87.7283 614.017,86.4274 617.948,86.7898 621.878,86.301 625.809,89.9956 629.739,90.4792 633.67,87.9335 637.601,90.2738 641.531,89.3506 645.462,86.671 649.392,88.8625 653.323,86.6018 657.253,87.02 661.184,86.1857 665.115,92.2788 669.045,88.2278 672.976,100.348 676.906,111.881 680.837,124.09 684.768,142.62 688.698,147.049 692.629,144.431 696.559,146.777 700.49,135.037 704.421,147.327 708.351,130.829 712.282,139.08 716.212,162.377 720.143,181.611 724.074,184.601 728.004,170.148 731.935,157.173 735.865,146.254 739.796,140.399 743.727,136.59 747.657,147.286 751.588,147.314 755.518,121.51 759.449,137.603 763.38,149.522 767.31,134.358 771.241,127.281 775.171,144.175 779.102,129.943 783.033,134.715 786.963,168.233 790.894,168.93 794.824,177.512 798.755,196.229 802.686,198.754 806.616,175.805 810.547,187.763 814.477,181.419 818.408,176.656 822.339,201.507 826.269,235.215 830.2,202.447 834.13,191.241 838.061,158.183 841.992,169.874 845.922,161.941 849.853,154.522 853.783,130.396 857.714,103.505 861.645,101.332 865.575,112.295 869.506,113.202 873.436,95.5484 877.367,99.5338 881.298,106.217 885.228,120.482 889.159,124.121 893.089,103.342 897.02,107.703 900.951,120.93 904.881,91.4665 908.812,89.3112 912.742,92.3574 916.673,91.6119 920.604,112.557 924.534,103.145 928.465,113.404 932.395,104.777 936.326,125.768 940.256,132.69 944.187,121.973 948.118,133.796 952.048,139.318 955.979,161.333 959.909,199.648 963.84,227.986 967.771,235.298 971.701,256.539 975.632,243.438 979.562,238.821 983.493,173.365 987.424,185.475 991.354,198.674 995.285,173.83 999.215,153.898 1003.15,139.29 1007.08,124.763 1011.01,151.452 1014.94,158.029 1018.87,148.697 1022.8,157.576 1026.73,134.881 1030.66,126.95 1034.59,95.4639 1038.52,111.496 1042.45,118.694 1046.38,142.017 1050.31,143.137 1054.24,128.436 1058.17,124.314 1062.11,129.424 1066.04,126.651 1069.97,112.64 1073.9,119.09 1077.83,125.001 1081.76,135.469 1085.69,132.941 1089.62,115.461 1093.55,113.719 1097.48,102.062 1101.41,92.2634 1105.34,105.462 1109.27,101.959 1113.2,102.484 1117.13,103.946 1121.06,103.999 1124.99,126.318 1128.93,117.363 1132.86,133.271 1136.79,148.069 1140.72,125.573 1144.65,114.532 1148.58,118.119 1152.51,114.579 1156.44,99.0861 1160.37,114.086 1164.3,126.243 1168.23,128.036 1172.16,115.062 1176.09,114.265 1180.02,125.709 1183.95,110.511 1187.88,106.937 1191.81,120.141 1195.75,133.649 1199.68,150.437 1203.61,154.476 1207.54,156.68 1211.47,146.57 1215.4,149.781 1219.33,150.255 1223.26,151.303 1227.19,163.455 1231.12,166.071 1235.05,161.303 1238.98,144.77 1242.91,147.744 1246.84,170.987 1250.77,152.276 1254.7,169.509 1258.63,180.464 1262.57,191.921 1266.5,189.909 1270.43,192.214 1274.36,210.654 1278.29,172.485 1282.22,181.073 1286.15,175.771 1290.08,168.844 1294.01,151.073 1297.94,138.479 1301.87,156.701 1305.8,125.895 1309.73,146.952 1313.66,156.768 1317.59,170.885 1321.52,175.33 1325.46,185.44 1329.39,168.366 1333.32,167.074 1337.25,173.708 1341.18,158.896 1345.11,135.284 1349.04,108.314 1352.97,106.917 1356.9,103.323 1360.83,97.9865 1364.76,104.722 1368.69,99.1037 1372.62,101.6 1376.55,119.298 1380.48,107.929 1384.41,118.662 1388.34,127.55 1392.28,133.472 1396.21,201.007 1400.14,185.19 1404.07,179.121 1408,136.372 1411.93,146.641 1415.86,135.088 1419.79,130.038 1423.72,131.904 1427.65,119.08 1431.58,114.971 1435.51,134.174 1439.44,157.863 1443.37,159.584 1447.3,158.248 1451.23,186.217 1455.16,216.201 1459.1,276.053 1463.03,303.661 1466.96,337.488 1470.89,401.336 1474.82,475.449 1478.75,405.072 1482.68,410.432 1486.61,346.754 1490.54,338.908 1494.47,368.07 1498.4,424.323 1502.33,363.878 1506.26,419.087 1510.19,429.764 1514.12,421.839 1518.05,417.12 1521.98,441.932 1525.92,447.419 1529.85,411.47 1533.78,310.523 1537.71,299.23 1541.64,358.054 1545.57,334.902 1549.5,322.568 1553.43,288.904 1557.36,320.699 1561.29,319.856 1565.22,278.548 1569.15,249.49 1573.08,246.579 1577.01,274.697 1580.94,261.163 1584.87,284.403 1588.81,259.039 1592.74,268.64 1596.67,317.636 1600.6,317.938 1604.53,303.188 1608.46,301.298 1612.39,320.597 1616.32,351.448 1620.25,415.75 1624.18,451.542 1628.11,461.37 1632.04,478.128 1635.97,448.895 1639.9,482.725 1643.83,424.535 1647.76,401.114 1651.69,432.86 1655.63,391.067 1659.56,483.158 1663.49,496.81 1667.42,564.155 1671.35,604.134 1675.28,636.957 1679.21,696.242 1683.14,765.692 1687.07,701.723 1691,749.159 1694.93,756.33 1698.86,698.245 1702.79,581.245 1706.72,614.18 1710.65,570.535 1714.58,739.214 1718.51,726.933 1722.45,785.522 1726.38,628.557 1730.31,684.977 1734.24,722.928 1738.17,745.131 1742.1,782.337 1746.03,722.06 1749.96,832.346 1753.89,945.033 1757.82,937.212 1761.75,936.721 1765.68,724.347 1769.61,811.143 1773.54,798.34 1777.47,755.965 1781.4,789.501 1785.33,831.168 1789.27,903.36 1793.2,950.157 1797.13,1046.13 1801.06,1207.37 1804.99,1256.46 1808.92,1258.9 1812.85,1272.43 1816.78,1182.02 1820.71,1220.09 1824.64,1198.88 1828.57,1166.84 1832.5,1240.89 1836.43,1226.43 1840.36,1186.33 1844.29,1163.45 1848.22,1119.35 1852.16,1189.68 1856.09,1147.85 1860.02,1121.89 1863.95,1185.99 1867.88,1280.26 1871.81,1347.72 1875.74,1372.5 1879.67,1371.73 1883.6,1367.16 1887.53,1342.43 1891.46,1340.14 1895.39,1340.47 1899.32,1335.84 1903.25,1346.19 1907.18,1355.94 1911.11,1354.91 1915.04,1336.49 1918.98,1346.08 1922.91,1274.87 1926.84,1253.91 1930.77,1286.23 1934.7,1200.39 1938.63,1067.54 1942.56,1143.55 1946.49,1211.29 1950.42,1288.55 1954.35,1355.77 1958.28,1376 1962.21,1383.93 1966.14,1379.93 1970.07,1374.25 1974,1384.09 1977.93,1375.92 1981.86,1338.52 1985.8,1312.5 1989.73,1323.86 1993.66,1352.97 1997.59,1384.24 2001.52,1378.25 2005.45,1382.71 2009.38,1384.14 2013.31,1357.14 2017.24,1350.57 2021.17,1310.96 2025.1,1261.47 2029.03,1376.4 2032.96,1359.67 2036.89,1313.55 2040.82,1221.4 2044.75,1204.39 2048.68,1252.89 2052.62,1212.59 2056.55,1242.86 2060.48,1235.4 2064.41,1270.21 2068.34,1186.06 2072.27,1275.4 2076.2,1193.82 2080.13,1101.52 2084.06,1206.3 2087.99,1228.83 2091.92,1327.73 2095.85,1303.41 2099.78,1350.7 2103.71,1332.68 2107.64,1246.52 2111.57,1239.42 2115.51,1222.57 2119.44,1303.54 2123.37,1348.63 2127.3,1360.09 2131.23,1356 2135.16,1373.28 2139.09,1378.23 2143.02,1361.75 2146.95,1343.63 2150.88,1319.17 2154.81,1265.94 2158.74,1210.4 2162.67,1087.61 2166.6,1011.46 2170.53,1085.98 2174.46,863.784 2178.39,925.77 2182.33,1095.52 2186.26,1071.15 2190.19,1043.7 2194.12,1248.46 2198.05,1237.55 2201.98,1117.15 2205.91,1100.99 2209.84,870.496 2213.77,500.075 2217.7,523.721 2221.63,635.686 2225.56,745.667 2229.49,962.854 2233.42,1016.76 2237.35,1080.28 2241.28,1080.68 2245.21,1005.48 2249.15,909.641 2253.08,876.133 2257.01,914.949 2260.94,1023.8 2264.87,933.894 2268.8,880.025 2272.73,846.153 2276.66,780.658 2280.59,730.801 2284.52,751.056 2288.45,788.074 2292.38,785.506 "/>
<path clip-path="url(#clip470)" d="M2014.16 196.789 L2281.65 196.789 L2281.65 93.1086 L2014.16 93.1086  Z" fill="#ffffff" fill-rule="evenodd" fill-opacity="1"/>
<polyline clip-path="url(#clip470)" style="stroke:#000000; stroke-linecap:round; stroke-linejoin:round; stroke-width:4; stroke-opacity:1; fill:none" points="2014.16,196.789 2281.65,196.789 2281.65,93.1086 2014.16,93.1086 2014.16,196.789 "/>
<polyline clip-path="url(#clip470)" style="stroke:#e26f46; stroke-linecap:round; stroke-linejoin:round; stroke-width:8; stroke-opacity:1; fill:none" stroke-dasharray="32, 20" points="2037.87,144.949 2180.08,144.949 "/>
<path clip-path="url(#clip470)" d="M2237.84 121.407 L2234.82 133.634 Q2234.61 134.407 2234.47 134.5 Q2234.35 134.594 2233.97 134.594 Q2233.25 134.594 2233.25 134.102 Q2233.25 134.055 2233.32 133.446 Q2233.39 132.814 2233.39 131.666 Q2233.39 127.427 2231.33 124.92 Q2229.29 122.414 2225.66 122.414 Q2222.26 122.414 2219.01 124.194 Q2215.75 125.974 2213.67 128.598 Q2211.91 130.753 2210.69 133.376 Q2209.5 135.999 2209.01 138.295 Q2208.51 140.567 2208.33 141.949 Q2208.16 143.33 2208.16 144.221 Q2208.16 146.844 2209.01 148.882 Q2209.85 150.896 2211.25 152.044 Q2212.68 153.191 2214.32 153.753 Q2215.99 154.316 2217.79 154.316 Q2218.47 154.316 2219.29 154.222 Q2220.11 154.128 2221.37 153.777 Q2222.66 153.426 2223.72 152.84 Q2224.79 152.254 2225.73 151.13 Q2226.69 150.006 2227.06 148.507 Q2228.07 144.689 2228.07 144.127 Q2228.07 143.658 2227.79 143.494 Q2227.51 143.33 2226.57 143.213 L2224.04 143.12 Q2224 143.12 2223.93 143.12 Q2223.48 143.12 2223.29 143.12 Q2223.11 143.096 2222.9 143.049 Q2222.71 143.003 2222.64 142.909 Q2222.59 142.792 2222.59 142.604 Q2222.59 142.159 2222.78 141.949 Q2222.97 141.714 2223.13 141.691 Q2223.29 141.644 2223.6 141.644 L2230.32 141.785 Q2230.86 141.785 2232.83 141.714 Q2234.79 141.644 2235.36 141.644 Q2235.99 141.644 2235.99 142.159 Q2235.99 143.12 2235.22 143.12 Q2234.44 143.143 2234.04 143.167 Q2233.65 143.167 2233.25 143.284 Q2232.87 143.401 2232.73 143.494 Q2232.59 143.565 2232.41 143.916 Q2232.22 144.244 2232.15 144.525 Q2232.08 144.783 2231.91 145.439 Q2231.82 145.86 2231.59 146.656 Q2231.37 147.453 2231.28 147.874 L2230.37 151.575 Q2229.74 154.316 2229.55 154.503 Q2229.45 154.69 2229.22 154.69 Q2228.87 154.69 2228.12 153.66 Q2227.39 152.629 2227.06 151.716 Q2226.48 152.348 2226.1 152.723 Q2225.73 153.074 2224.86 153.636 Q2224.02 154.198 2222.9 154.644 Q2220.16 155.791 2216.9 155.791 Q2211.09 155.791 2207.44 152.114 Q2203.78 148.413 2203.78 142.651 Q2203.78 138.576 2205.66 134.57 Q2207.53 130.565 2210.51 127.591 Q2213.48 124.616 2217.41 122.766 Q2221.35 120.915 2225.28 120.915 Q2226.78 120.915 2228.12 121.313 Q2229.45 121.712 2230.25 122.203 Q2231.07 122.695 2231.8 123.421 Q2232.52 124.124 2232.76 124.452 Q2233.01 124.78 2233.25 125.178 L2236.6 121.501 Q2237.18 120.915 2237.32 120.915 Q2237.6 120.915 2237.72 121.079 Q2237.84 121.243 2237.84 121.407 Z" fill="#000000" fill-rule="nonzero" fill-opacity="1" /><path clip-path="url(#clip470)" d="M2252.93 154.172 Q2252.93 154.631 2252.72 154.746 Q2252.51 154.844 2251.92 154.844 L2248.77 154.844 L2246.28 164.747 Q2246.08 165.616 2246.08 166.354 Q2246.08 167.174 2246.33 167.535 Q2246.59 167.895 2247.13 167.895 Q2248.2 167.895 2249.34 166.928 Q2250.51 165.961 2251.49 163.6 Q2251.62 163.288 2251.69 163.223 Q2251.77 163.141 2251.98 163.141 Q2252.39 163.141 2252.39 163.469 Q2252.39 163.583 2252.16 164.108 Q2251.95 164.633 2251.48 165.403 Q2251.02 166.174 2250.41 166.895 Q2249.82 167.617 2248.92 168.141 Q2248.02 168.65 2247.05 168.65 Q2245.69 168.65 2244.82 167.781 Q2243.97 166.912 2243.97 165.551 Q2243.97 165.108 2244.31 163.698 Q2244.65 162.272 2246.52 154.844 L2243.56 154.844 Q2243.15 154.844 2242.98 154.828 Q2242.83 154.812 2242.72 154.73 Q2242.62 154.631 2242.62 154.435 Q2242.62 154.123 2242.75 153.992 Q2242.88 153.844 2243.05 153.828 Q2243.23 153.795 2243.64 153.795 L2246.79 153.795 L2248.1 148.467 Q2248.23 147.942 2248.56 147.647 Q2248.9 147.335 2249.1 147.302 Q2249.29 147.253 2249.44 147.253 Q2249.89 147.253 2250.15 147.499 Q2250.41 147.729 2250.41 148.155 Q2250.41 148.385 2249.03 153.795 L2251.98 153.795 Q2252.36 153.795 2252.51 153.812 Q2252.67 153.828 2252.8 153.91 Q2252.93 153.992 2252.93 154.172 Z" fill="#000000" fill-rule="nonzero" fill-opacity="1" /></svg>
